<?xml version="1.0" standalone="no"?>
<!DOCTYPE svg PUBLIC "-//W3C//DTD SVG 20010904//EN"
 "http://www.w3.org/TR/2001/REC-SVG-20010904/DTD/svg10.dtd">
<svg version="1.0" xmlns="http://www.w3.org/2000/svg"
 width="84.000000pt" height="93.000000pt" viewBox="0 0 84.000000 93.000000"
 preserveAspectRatio="xMidYMid meet">
<metadata>
Created by potrace 1.10, written by Peter Selinger 2001-2011
</metadata>
<g transform="translate(0.000000,93.000000) scale(0.100000,-0.100000)"
fill="#bf9000" stroke="none">
<path d="M315 900 c-90 -46 -137 -121 -137 -218 0 -79 -14 -127 -45 -151 -14
-12 -20 -21 -13 -21 8 0 21 7 30 15 15 13 19 14 29 1 8 -10 9 -16 1 -21 -5 -3
-10 2 -10 11 0 13 -3 15 -11 7 -14 -14 -3 -33 17 -33 22 0 30 31 11 45 -12 9
-14 19 -9 40 l8 29 26 -45 c62 -106 192 -147 303 -95 81 37 126 101 140 201 8
55 35 100 65 110 11 4 20 11 20 16 0 18 -23 8 -56 -25 l-33 -33 -11 30 c-15
45 -57 95 -103 124 -58 36 -164 43 -222 13z m224 -32 c28 -18 32 -23 18 -26
-10 -2 -31 1 -45 6 -56 21 -97 23 -133 4 -33 -17 -37 -17 -48 -3 -10 14 -11
13 -6 -5 3 -12 1 -32 -5 -46 -17 -36 2 -77 40 -84 36 -8 40 -24 6 -24 -33 0
-107 -58 -127 -99 l-15 -32 -12 26 c-19 40 -15 130 7 173 31 60 114 134 158
141 51 9 117 -4 162 -31z m-102 -14 c-3 -3 -12 -4 -19 -1 -8 3 -5 6 6 6 11 1
17 -2 13 -5z m68 -27 c-11 -7 -42 -34 -69 -60 -52 -50 -80 -57 -100 -24 -14
22 -1 44 44 75 25 16 47 22 89 21 48 0 53 -2 36 -12z m75 -6 c0 -13 -17 -23
-23 -14 -2 5 -2 3 -1 -4 3 -12 -100 -83 -120 -83 -14 0 75 90 99 100 27 12 45
12 45 1z m50 -118 c0 -79 -47 -159 -119 -201 -25 -14 -49 -30 -52 -35 -10 -15
-90 -10 -133 8 -47 20 -40 29 19 26 25 -1 54 3 66 9 11 7 23 9 26 6 3 -3 -14
-15 -38 -26 -24 -11 -38 -20 -30 -20 23 0 97 47 115 74 9 14 25 51 37 81 12
31 35 72 51 91 17 19 27 38 24 42 -4 4 -14 -2 -22 -13 -14 -19 -15 -18 -8 10
4 17 11 39 17 50 10 18 12 17 28 -20 10 -22 19 -59 19 -82z m-76 45 c-4 -13
-5 -24 -3 -25 2 -1 -14 -20 -35 -42 l-39 -40 -28 31 c-16 16 -29 31 -29 32 0
2 17 8 38 14 20 7 51 23 67 36 34 28 40 27 29 -6z m-160 -86 c3 -9 18 -24 32
-33 l27 -16 -22 -22 c-22 -22 -51 -28 -51 -10 0 5 4 8 9 4 15 -9 25 15 11 28
-17 17 -44 -21 -29 -40 16 -19 39 -16 66 9 30 28 29 42 -2 56 -14 6 -25 18
-25 27 0 23 16 18 37 -11 17 -23 22 -25 42 -15 l22 12 -17 -28 c-42 -67 -100
-113 -144 -113 -17 0 -19 4 -14 25 4 15 2 25 -5 25 -6 0 -11 -9 -11 -19 0 -23
-35 -37 -54 -21 -21 17 -25 44 -10 76 l14 29 -5 -32 c-3 -22 2 -39 15 -55 l19
-23 -12 33 c-10 27 -9 37 8 68 29 53 88 81 99 46z"/>
<path d="M540 610 c0 -5 8 -14 18 -19 14 -9 15 -10 1 -11 -22 0 -49 -32 -48
-56 0 -14 3 -12 11 9 6 16 20 30 34 33 27 7 28 8 14 35 -11 20 -30 26 -30 9z"/>
<path d="M661 806 c-9 -10 -8 -16 3 -25 12 -10 17 -8 25 7 16 30 -6 44 -28 18z"/>
<path d="M270 374 c-14 -35 -14 -35 18 -28 15 3 55 5 90 5 48 -1 62 2 62 14 0
9 -6 12 -17 8 -11 -4 -14 -3 -9 5 4 7 2 12 -3 12 -6 0 -11 -4 -11 -9 0 -11
-30 -19 -47 -14 -7 3 -13 9 -13 15 0 6 7 7 16 4 8 -3 12 -2 9 4 -3 6 -15 10
-27 10 -15 0 -18 -4 -14 -17 6 -16 6 -16 -12 0 -25 23 -31 22 -42 -9z m25 7
c3 -5 1 -12 -5 -16 -5 -3 -10 1 -10 9 0 18 6 21 15 7z"/>
<path d="M485 372 c-48 -10 -35 -22 23 -21 50 1 62 4 62 17 0 12 -3 13 -11 5
-7 -7 -20 -8 -33 -4 -11 4 -30 6 -41 3z"/>
<path d="M63 363 c37 -2 96 -2 130 0 34 2 4 3 -68 3 -72 0 -99 -1 -62 -3z"/>
<path d="M648 363 c34 -2 90 -2 125 0 34 2 6 3 -63 3 -69 0 -97 -1 -62 -3z"/>
<path d="M43 295 c-18 -8 -33 -18 -34 -22 -12 -93 10 -126 82 -121 35 2 45 7
48 23 2 11 8 23 15 27 6 4 -7 7 -29 6 -23 0 -30 -3 -17 -5 29 -6 28 -31 -2
-39 -50 -12 -95 40 -77 90 11 26 30 36 71 36 19 0 30 -6 33 -17 4 -14 5 -12 6
5 0 12 -5 22 -11 22 -7 0 -22 2 -33 5 -11 3 -35 -2 -52 -10z"/>
<path d="M160 299 c0 -8 15 -13 33 -10 4 0 7 -29 7 -66 0 -38 -4 -63 -8 -57
-5 9 -11 8 -20 -2 -11 -12 -6 -14 30 -13 24 1 35 3 26 6 -12 3 -18 14 -18 34
0 38 13 37 46 -6 23 -31 31 -35 73 -35 27 0 41 4 33 8 -21 14 -3 40 26 39 40
-2 57 -31 25 -40 -10 -3 18 -5 62 -5 44 0 72 2 63 5 -15 4 -18 15 -18 61 1 56
1 57 19 35 10 -12 37 -43 60 -69 l41 -47 0 77 c0 74 1 76 25 76 24 0 25 -2 25
-64 0 -53 -3 -65 -17 -69 -10 -3 12 -5 50 -6 80 -1 107 17 107 74 0 51 -28 75
-92 77 -29 1 -72 2 -95 3 -39 2 -58 -8 -33 -17 12 -4 24 -88 13 -88 -4 0 -27
22 -52 49 -28 30 -58 52 -76 55 -30 6 -30 6 -7 -10 18 -14 22 -26 22 -75 0
-55 -1 -59 -24 -59 -20 0 -29 12 -57 76 l-33 77 -18 -39 c-10 -22 -24 -56 -32
-76 -18 -46 -35 -48 -65 -7 -17 23 -20 34 -12 42 15 15 14 42 -1 54 -17 14
-108 23 -108 12z m88 -42 c3 -22 -1 -27 -17 -27 -17 0 -21 6 -21 31 0 24 4 30
18 27 10 -2 18 -14 20 -31z m536 17 c9 -8 16 -23 16 -32 0 -15 2 -15 10 -2 7
12 10 8 10 -15 0 -23 -3 -27 -10 -15 -8 13 -10 13 -10 -2 0 -24 -28 -48 -56
-48 -23 0 -24 3 -24 65 0 62 1 65 24 65 14 0 32 -7 40 -16z m-378 -41 c1 -16
-3 -23 -17 -23 -20 0 -23 8 -14 33 9 22 30 16 31 -10z"/>
<path d="M352 93 c-8 -8 -9 -13 -2 -13 5 0 10 -16 10 -35 0 -27 4 -35 18 -34
10 0 12 3 5 6 -15 5 -18 60 -4 65 5 2 4 8 -3 14 -8 8 -15 7 -24 -3z"/>
<path d="M144 76 c-12 -31 0 -61 25 -61 13 0 26 7 28 15 4 12 3 13 -5 1 -13
-19 -42 -6 -42 18 0 27 17 36 37 19 14 -11 16 -11 11 2 -6 20 -47 25 -54 6z"/>
<path d="M250 75 c-24 -29 8 -75 44 -62 30 12 14 77 -20 77 -6 0 -17 -7 -24
-15z m48 -23 c4 -26 -26 -42 -38 -21 -11 16 7 52 23 46 7 -2 13 -13 15 -25z"/>
<path d="M432 78 c-16 -16 -15 -44 3 -62 18 -17 41 -12 50 12 5 14 4 15 -6 5
-22 -22 -39 -15 -39 17 0 20 5 30 15 30 8 0 15 -7 15 -16 0 -8 -4 -12 -10 -9
-5 3 -10 1 -10 -4 0 -13 10 -14 29 -2 12 8 12 12 2 25 -16 19 -33 20 -49 4z"/>
<path d="M537 84 c-14 -14 -7 -26 8 -14 11 9 19 10 26 3 7 -7 2 -12 -15 -17
-39 -10 -36 -46 5 -46 29 0 30 2 27 38 -2 28 -8 38 -23 40 -12 2 -24 0 -28 -4z
m43 -44 c0 -13 -28 -25 -38 -16 -3 4 0 11 8 16 20 13 30 12 30 0z"/>
<path d="M632 53 c3 -33 7 -38 31 -41 26 -3 27 -2 25 40 l-1 43 -4 -37 c-6
-51 -33 -53 -33 -3 0 19 -5 35 -11 35 -6 0 -9 -16 -7 -37z"/>
</g>
</svg>
