<?xml version="1.0" standalone="no"?>
<!DOCTYPE svg PUBLIC "-//W3C//DTD SVG 20010904//EN"
 "http://www.w3.org/TR/2001/REC-SVG-20010904/DTD/svg10.dtd">
<svg version="1.0" xmlns="http://www.w3.org/2000/svg"
 width="127.000000pt" height="36.000000pt" viewBox="0 0 127.000000 36.000000"
 preserveAspectRatio="xMidYMid meet">
<metadata>
Created by potrace 1.10, written by Peter Selinger 2001-2011
</metadata>
<g transform="translate(0.000000,36.000000) scale(0.100000,-0.100000)"
fill="#000000" stroke="none">
<path d="M940 353 c0 -6 -16 -27 -35 -47 -35 -38 -42 -59 -26 -85 14 -21 31
-3 31 33 0 25 7 38 32 56 21 15 33 19 36 12 2 -7 12 -12 22 -12 24 0 41 -22
47 -62 6 -42 20 -57 29 -33 4 10 1 37 -7 59 -11 33 -21 43 -49 53 -19 7 -28
12 -20 12 11 1 11 4 2 13 -10 10 -15 10 -22 -1 -7 -12 -11 -12 -24 -2 -9 8
-16 9 -16 4z"/>
<path d="M270 244 c0 -32 -23 -93 -36 -96 -9 -2 -11 -8 -4 -18 8 -13 13 -13
31 -2 28 18 36 8 19 -24 -19 -34 -2 -60 35 -57 37 3 40 8 21 35 -22 30 -20 48
4 48 21 0 27 -15 10 -25 -15 -10 0 -27 17 -21 11 5 14 1 10 -13 -3 -11 1 -25
9 -32 8 -6 14 -10 14 -8 1 2 2 29 4 59 1 30 4 61 7 69 2 7 -2 16 -9 18 -8 3
-16 -4 -19 -17 -4 -13 -11 -19 -20 -16 -8 4 -33 9 -55 12 l-40 7 28 22 c27 22
28 23 11 49 -20 29 -37 34 -37 10z m50 -162 c0 -13 -12 -22 -22 -16 -10 6 -1
24 13 24 5 0 9 -4 9 -8z"/>
<path d="M190 225 c-6 -15 -8 -36 -5 -46 4 -13 1 -19 -8 -19 -8 0 -17 9 -20
20 -3 11 -10 20 -17 20 -15 0 -9 -112 7 -117 6 -2 14 10 18 27 10 46 20 27 20
-41 0 -96 20 -69 22 30 1 50 6 99 12 109 8 15 7 23 -4 32 -12 10 -17 7 -25
-15z"/>
<path d="M710 232 c0 -9 7 -23 15 -32 11 -12 12 -24 5 -49 -10 -34 4 -49 35
-37 17 6 20 -12 5 -34 -9 -13 -11 -13 -19 0 -13 20 -24 6 -16 -19 12 -38 41
-45 83 -19 46 28 62 43 62 59 0 7 -4 8 -12 2 -7 -5 -25 -14 -41 -21 -27 -11
-27 -11 -21 16 4 15 13 34 20 43 22 25 16 32 -21 26 -30 -5 -35 -3 -35 13 0
16 7 19 40 17 51 -2 61 10 30 34 -32 24 -130 25 -130 1z"/>
<path d="M625 220 c-3 -11 -13 -27 -21 -35 -17 -17 -49 -21 -39 -5 18 29 -53
52 -82 28 -22 -18 -14 -28 17 -21 37 7 40 -10 5 -33 -20 -13 -23 -19 -14 -31
7 -8 18 -12 25 -9 14 6 26 -18 18 -38 -8 -20 11 -29 26 -12 8 11 8 20 1 35
-15 28 -14 44 4 38 8 -4 17 -2 20 3 10 17 23 11 27 -10 5 -36 23 -16 23 26 0
23 6 48 13 56 6 8 9 18 5 21 -11 12 -22 7 -28 -13z"/>
<path d="M10 161 c0 -33 4 -71 10 -86 8 -22 15 -25 45 -22 19 2 38 7 42 11 11
11 3 128 -9 143 -14 18 -28 6 -28 -23 0 -15 -6 -24 -16 -24 -11 0 -14 5 -10
16 6 17 -9 44 -25 44 -5 0 -9 -27 -9 -59z m68 -53 c-2 -18 -7 -33 -12 -33 -15
0 -26 53 -13 59 24 9 28 5 25 -26z"/>
<path d="M990 213 c0 -7 5 -24 12 -37 8 -20 8 -36 -1 -67 -14 -46 -11 -54 18
-44 15 4 21 15 21 35 0 27 2 29 28 24 32 -6 58 16 48 41 -4 12 -14 14 -40 9
-30 -5 -39 -2 -60 22 -14 16 -26 24 -26 17z"/>
<path d="M428 153 c-1 -32 -2 -73 0 -90 3 -35 19 -44 28 -18 9 21 -6 165 -16
165 -5 0 -10 -26 -12 -57z"/>
<path d="M878 193 c-16 -2 -28 -8 -28 -13 0 -16 36 -29 60 -23 19 5 22 3 17
-11 -20 -51 -20 -66 2 -66 42 0 56 78 19 104 -12 9 -27 15 -33 15 -5 -1 -22
-4 -37 -6z"/>
<path d="M1142 128 l3 -63 51 -1 c62 -2 75 5 67 34 -3 12 -9 19 -15 16 -5 -3
-6 -15 -2 -26 6 -19 5 -19 -20 -3 -20 14 -24 23 -20 48 4 30 4 30 -6 8 -6 -13
-8 -32 -5 -42 5 -15 2 -18 -14 -16 -22 3 -41 17 -23 17 7 0 9 13 5 35 -6 38
-3 40 76 35 22 -1 31 2 27 9 -4 6 -34 11 -67 11 l-60 0 3 -62z"/>
<path d="M1245 147 c-6 -7 -15 -18 -19 -25 -7 -11 -4 -11 13 0 12 7 21 18 21
25 0 16 -2 16 -15 0z"/>
<path d="M600 70 c-21 -39 24 -58 47 -20 11 16 10 21 -6 30 -26 14 -29 13 -41
-10z m30 -10 c0 -5 -5 -10 -11 -10 -5 0 -7 5 -4 10 3 6 8 10 11 10 2 0 4 -4 4
-10z"/>
</g>
</svg>
