<?xml version="1.0" standalone="no"?>
<!DOCTYPE svg PUBLIC "-//W3C//DTD SVG 20010904//EN"
 "http://www.w3.org/TR/2001/REC-SVG-20010904/DTD/svg10.dtd">
<svg version="1.0" xmlns="http://www.w3.org/2000/svg"
 width="450.000000pt" height="450.000000pt" viewBox="0 0 450.000000 450.000000"
 preserveAspectRatio="xMidYMid meet">
<metadata>
Created by potrace 1.10, written by Peter Selinger 2001-2011
</metadata>
<g transform="translate(0.000000,450.000000) scale(0.100000,-0.100000)"
fill="#f1c232" stroke="none">
<path d="M1580 3094 c-374 -33 -731 -106 -872 -180 -14 -8 -33 -14 -42 -14 -9
0 -38 -13 -64 -30 -27 -16 -54 -30 -61 -30 -6 0 -11 -5 -11 -10 0 -6 -8 -14
-17 -17 -29 -11 -115 -77 -169 -130 -73 -73 -136 -207 -159 -339 -10 -55 -15
-116 -12 -135 24 -154 36 -199 68 -259 39 -73 54 -95 101 -145 54 -58 149
-135 167 -135 6 0 14 -6 18 -12 4 -7 40 -28 78 -46 39 -18 83 -40 98 -48 16
-8 33 -14 39 -14 5 0 24 -6 41 -14 40 -16 106 -34 176 -47 29 -5 62 -14 72
-19 10 -6 34 -10 54 -10 19 0 52 -7 72 -15 19 -8 60 -15 90 -15 29 0 118 -8
196 -17 121 -14 246 -17 847 -17 510 1 720 4 760 13 31 6 94 16 140 21 130 13
243 31 262 41 9 4 40 11 70 15 29 4 65 13 80 20 15 8 36 14 47 14 11 0 32 6
48 14 15 8 66 33 113 55 152 72 274 168 372 291 114 144 145 305 102 530 -14
76 -91 213 -159 282 -53 54 -173 148 -190 148 -2 0 -27 14 -55 30 -28 17 -56
30 -61 30 -6 0 -25 6 -42 14 -120 51 -238 86 -378 111 -221 39 -272 46 -419
55 -85 5 -188 14 -228 20 -108 15 -983 11 -1172 -6z m1110 -59 c373 -21 591
-47 765 -91 273 -70 403 -125 543 -230 163 -123 229 -248 239 -457 10 -196
-58 -338 -235 -490 -46 -39 -142 -92 -247 -137 -27 -11 -58 -25 -68 -31 -10
-5 -37 -14 -60 -19 -23 -5 -76 -19 -117 -30 -151 -42 -384 -77 -612 -92 -255
-16 -1009 -22 -1143 -8 -60 6 -177 15 -260 20 -150 10 -278 27 -410 54 -136
28 -165 36 -184 46 -11 5 -29 10 -41 10 -48 0 -293 116 -370 176 -84 65 -154
141 -181 196 -35 72 -40 85 -50 138 -54 286 29 496 256 648 86 57 198 112 295
145 42 14 90 28 213 61 68 18 168 38 237 46 30 4 89 12 130 18 41 6 134 14
205 18 72 3 175 10 230 14 184 13 587 10 865 -5z"/>
<path d="M858 2517 l-3 -32 -75 3 c-41 2 -87 5 -101 8 -22 4 -28 1 -33 -21 -4
-15 -4 -36 -1 -46 6 -17 12 -19 38 -13 41 9 402 9 444 0 29 -7 33 -5 39 20 12
48 -4 59 -82 55 -139 -7 -129 -9 -132 26 -3 30 -5 31 -47 31 -42 0 -44 -1 -47
-31z"/>
<path d="M1700 2531 l-25 -7 0 -168 c0 -92 2 -171 5 -176 3 -4 21 -10 40 -11
l35 -4 3 73 c3 69 4 73 25 72 39 -4 44 0 51 32 7 36 -4 48 -46 48 -27 0 -27 1
-30 72 -3 78 -8 83 -58 69z"/>
<path d="M2330 2531 l-25 -7 0 -294 0 -295 40 0 40 0 0 300 c0 326 2 312 -55
296z"/>
<path d="M2525 2531 c-18 -7 -19 -20 -20 -284 l-1 -277 117 0 117 0 -2 277 -1
277 -25 6 c-46 12 -50 5 -50 -100 0 -90 -2 -99 -20 -105 -24 -8 -57 1 -63 18
-2 7 0 48 4 92 10 99 -1 117 -56 96z m138 -285 c4 -6 5 -20 2 -31 -2 -11 -5
-50 -5 -88 0 -63 -2 -68 -26 -79 -48 -22 -58 -4 -57 102 1 78 4 96 19 107 19
14 54 8 67 -11z"/>
<path d="M2797 2533 c-3 -5 -6 -141 -6 -302 l-1 -292 38 3 37 3 1 135 c1 174
-2 162 36 158 l33 -3 -4 -148 -3 -148 41 3 42 3 1 295 0 295 -43 0 -43 0 3
-118 3 -118 -34 3 -33 3 0 115 0 115 -32 3 c-17 2 -33 -1 -36 -5z"/>
<path d="M3800 2531 c0 -5 -9 -13 -20 -16 -11 -3 -31 -21 -45 -39 -30 -39 -38
-122 -15 -150 19 -23 53 -57 74 -73 26 -22 87 -15 131 15 46 32 91 108 75 127
-5 6 -7 15 -3 18 14 14 -44 97 -67 97 -6 0 -13 7 -16 15 -5 11 -21 15 -60 15
-30 0 -54 -4 -54 -9z m116 -55 c36 -31 39 -38 38 -84 0 -41 -5 -55 -25 -71
-13 -11 -30 -20 -38 -21 -8 0 -19 -7 -26 -17 -12 -16 -17 -15 -62 11 -56 32
-84 116 -48 146 8 7 15 19 15 26 0 8 9 14 19 14 10 0 21 7 25 15 10 27 60 17
102 -19z"/>
<path d="M3806 2458 c-8 -32 -8 -123 1 -132 4 -4 15 3 25 16 17 21 19 22 29 6
5 -10 19 -18 29 -18 21 0 25 16 11 39 -6 9 -5 23 1 37 15 33 -17 73 -58 74
-25 0 -33 -5 -38 -22z m54 -34 c0 -16 -16 -19 -25 -4 -8 13 4 32 16 25 5 -4 9
-13 9 -21z"/>
<path d="M3116 2523 c-3 -4 -6 -21 -6 -40 0 -36 -2 -35 85 -37 l60 -1 0 -50
c0 -49 1 -50 33 -53 35 -4 31 -15 37 113 3 71 5 70 -104 72 -54 1 -102 -1
-105 -4z"/>
<path d="M3379 2513 c-6 -6 -9 -22 -7 -35 3 -21 9 -23 88 -28 l84 -5 -3 -52
-2 -53 46 0 46 0 -3 93 -3 92 -118 0 c-82 1 -121 -3 -128 -12z"/>
<path d="M1253 2503 c-3 -6 -3 -20 -1 -30 3 -16 17 -18 120 -21 107 -2 116 -4
121 -23 12 -47 1 -51 -107 -46 -56 3 -107 3 -112 -1 -6 -4 -12 -45 -12 -94 -1
-92 10 -117 45 -103 10 4 82 6 160 6 l143 -1 6 24 c11 44 0 47 -124 43 -117
-5 -152 2 -152 27 0 31 32 41 134 41 l101 0 0 93 0 94 -159 1 c-115 2 -160 -1
-163 -10z"/>
<path d="M1970 2512 c-29 -13 -55 -37 -72 -63 -14 -22 -17 -54 -18 -170 -2
-240 -4 -224 32 -265 47 -53 87 -68 152 -54 101 21 136 85 136 250 0 163 -13
225 -57 268 -32 30 -43 35 -97 38 -34 2 -68 0 -76 -4z m110 -87 c28 -30 38
-89 39 -223 1 -72 -3 -99 -16 -120 -38 -59 -81 -68 -120 -26 -24 26 -24 29
-21 189 3 160 3 163 28 184 33 27 62 26 90 -4z"/>
<path d="M3385 2378 c-2 -7 -6 -29 -7 -48 l-3 -35 -138 0 c-111 0 -139 -3
-147 -15 -12 -19 -12 -21 0 -40 8 -13 53 -15 295 -16 202 -1 285 2 284 10 -1
6 -4 22 -8 36 -7 25 -8 25 -103 22 l-97 -4 -3 49 c-3 46 -4 48 -36 51 -20 2
-34 -2 -37 -10z"/>
<path d="M748 2363 c-44 -5 -98 -59 -98 -99 0 -33 24 -73 58 -99 24 -17 41
-19 207 -17 l180 3 28 28 c53 52 44 140 -16 173 -20 10 -282 18 -359 11z m302
-78 c26 -23 25 -32 -2 -56 -20 -16 -41 -18 -144 -19 -115 0 -122 1 -143 24
-19 20 -21 28 -12 44 13 24 38 27 184 26 79 -1 101 -4 117 -19z"/>
<path d="M3125 2169 c-8 -12 -9 -205 -1 -217 3 -5 117 -8 253 -8 l248 1 1 95
c0 53 4 101 8 109 11 18 -10 31 -52 31 -24 0 -35 -6 -43 -22 -10 -22 -14 -23
-164 -23 -150 0 -154 1 -164 23 -8 17 -19 22 -45 22 -19 0 -38 -5 -41 -11z
m420 -109 c15 -12 14 -15 0 -29 -13 -13 -44 -16 -180 -17 l-165 0 0 27 c0 34
-1 34 182 33 104 -1 153 -5 163 -14z"/>
<path d="M1321 2121 c-42 -23 -62 -65 -48 -106 26 -79 73 -92 287 -85 165 6
188 15 210 79 16 50 -6 99 -51 108 -16 3 -32 10 -35 14 -3 5 -78 9 -167 9
-136 -1 -167 -4 -196 -19z m355 -62 c8 -7 14 -22 12 -33 -3 -20 -8 -21 -163
-21 l-160 0 -3 28 c-2 20 2 29 17 35 33 12 281 5 297 -9z"/>
<path d="M866 2096 c-3 -12 -6 -31 -6 -43 0 -21 -5 -23 -47 -22 -27 0 -75 4
-108 8 -72 10 -87 1 -83 -48 3 -34 5 -36 38 -34 49 2 470 2 499 0 19 -2 26 4
32 27 15 54 1 62 -93 55 -154 -13 -146 -15 -150 33 -3 41 -4 42 -40 44 -29 0
-38 -3 -42 -20z"/>
<path d="M3930 1810 c0 -13 28 -25 38 -16 3 4 0 11 -8 16 -20 13 -30 12 -30 0z"/>
<path d="M2135 1480 c-12 -5 47 -9 153 -9 113 -1 171 2 167 9 -8 12 -291 12
-320 0z"/>
</g>
</svg>
