<?xml version="1.0" standalone="no"?>
<!DOCTYPE svg PUBLIC "-//W3C//DTD SVG 20010904//EN"
 "http://www.w3.org/TR/2001/REC-SVG-20010904/DTD/svg10.dtd">
<svg version="1.0" xmlns="http://www.w3.org/2000/svg"
 width="160.000000pt" height="42.000000pt" viewBox="0 0 160.000000 42.000000"
 preserveAspectRatio="xMidYMid meet">
<metadata>
Created by potrace 1.10, written by Peter Selinger 2001-2011
</metadata>
<g transform="translate(0.000000,42.000000) scale(0.050000,-0.050000)"
fill="#666666" stroke="none">
<path d="M396 400 c-5 -173 -2 -200 26 -200 26 0 30 18 23 100 -9 92 -7 100
32 100 24 0 43 9 43 20 0 11 -19 20 -42 20 -37 0 -41 10 -35 80 6 53 0 80 -16
80 -17 0 -26 -60 -31 -200z"/>
<path d="M808 400 c-1 -155 4 -200 25 -200 21 0 27 46 27 200 0 147 -7 200
-25 200 -18 0 -25 -54 -27 -200z"/>
<path d="M1200 480 c0 -93 7 -120 30 -120 19 0 30 19 30 50 0 31 11 50 30 50
17 0 30 9 30 20 0 11 -13 20 -30 20 -19 0 -30 19 -30 50 0 31 -11 50 -30 50
-23 0 -30 -27 -30 -120z"/>
<path d="M1720 400 c0 -170 5 -200 32 -200 27 0 30 16 18 100 -13 93 -11 100
28 100 23 0 42 9 42 20 0 11 -19 20 -43 20 -38 0 -41 8 -29 80 10 64 6 80 -18
80 -25 0 -30 -35 -30 -200z"/>
<path d="M2120 460 c0 -111 6 -140 30 -140 24 0 30 29 30 140 0 111 -6 140
-30 140 -24 0 -30 -29 -30 -140z"/>
<path d="M2467 525 c7 -41 13 -91 13 -110 0 -19 9 -35 20 -35 11 0 20 18 20
40 0 22 9 40 20 40 11 0 20 -18 20 -40 0 -22 9 -40 20 -40 11 0 20 35 20 78 0
43 5 93 12 110 8 21 1 32 -20 32 -21 0 -32 -17 -32 -50 0 -27 -9 -50 -20 -50
-11 0 -20 23 -20 50 0 33 -11 50 -33 50 -26 0 -30 -14 -20 -75z"/>
<path d="M2940 400 c0 -164 5 -200 30 -200 25 0 30 36 30 200 0 164 -5 200
-30 200 -25 0 -30 -36 -30 -200z"/>
<path d="M180 560 c0 -11 32 -20 70 -20 39 0 70 9 70 20 0 11 -31 20 -70 20
-38 0 -70 -9 -70 -20z"/>
<path d="M961 551 c-31 -37 -20 -111 21 -137 43 -27 132 -2 156 43 47 86 -113
171 -177 94z m129 -61 c0 -45 -67 -67 -91 -29 -24 40 2 82 49 75 27 -4 42 -20
42 -46z"/>
<path d="M1471 536 c-43 -62 -39 -87 19 -132 67 -53 63 -84 -10 -84 -33 0 -60
-9 -60 -20 0 -22 196 -28 248 -8 57 22 35 54 -28 41 -71 -14 -85 32 -20 67 45
24 55 117 16 156 -40 40 -131 29 -165 -20z m127 -23 c31 -38 7 -93 -41 -93
-43 0 -67 44 -50 90 15 38 61 39 91 3z"/>
<path d="M1884 556 c-31 -31 -31 -121 0 -152 31 -31 121 -31 152 0 63 63 14
176 -76 176 -29 0 -63 -11 -76 -24z m116 -46 c20 -24 20 -36 0 -60 -50 -60
-121 -14 -93 60 7 17 24 30 40 30 15 0 39 -13 53 -30z"/>
<path d="M2260 490 l0 -90 78 0 78 0 7 90 c5 63 0 90 -18 90 -14 0 -25 -13
-25 -30 0 -17 -18 -30 -40 -30 -22 0 -40 13 -40 30 0 17 -9 30 -20 30 -11 0
-20 -40 -20 -90z"/>
<path d="M540 440 l0 -120 100 0 100 0 0 120 0 120 -100 0 -100 0 0 -120z
m160 0 c0 -72 -5 -80 -50 -80 -45 0 -50 8 -50 80 0 72 5 80 50 80 45 0 50 -8
50 -80z"/>
<path d="M2660 540 c0 -11 36 -20 80 -20 58 0 80 -8 80 -30 0 -21 -21 -30 -68
-30 -65 0 -112 -87 -78 -145 10 -18 169 -20 214 -3 62 24 9 47 -79 35 -81 -11
-89 -9 -89 30 0 36 12 43 70 43 67 0 70 3 70 70 l0 70 -100 0 c-55 0 -100 -9
-100 -20z"/>
<path d="M120 500 c0 -11 53 -20 119 -20 65 0 124 9 131 20 8 13 -36 20 -119
20 -74 0 -131 -9 -131 -20z"/>
<path d="M171 429 c-39 -40 -39 -78 0 -118 65 -64 169 -26 169 62 0 78 -110
114 -169 56z m125 -54 c8 -42 -50 -69 -80 -39 -30 30 -3 88 39 80 19 -3 38
-22 41 -41z"/>
<path d="M1010 320 c-35 -39 -35 -41 0 -80 62 -68 250 -40 250 38 0 78 -189
109 -250 42z m170 -20 c34 -23 -3 -59 -60 -59 -57 0 -94 36 -60 59 17 11 44
19 60 19 17 0 44 -8 60 -19z"/>
<path d="M2320 341 c0 -11 56 -22 125 -26 l125 -7 -125 -4 c-119 -4 -125 -6
-125 -54 0 -49 3 -50 150 -50 182 0 204 38 25 44 l-125 4 115 7 c107 6 115 11
115 56 0 47 -5 49 -140 49 -77 0 -140 -9 -140 -19z"/>
<path d="M1920 270 l0 -70 140 0 c80 0 140 9 140 20 0 11 -49 20 -110 20 -104
0 -110 3 -110 50 0 31 -11 50 -30 50 -21 0 -30 -21 -30 -70z"/>
</g>
</svg>
