<?xml version="1.0" standalone="no"?>
<!DOCTYPE svg PUBLIC "-//W3C//DTD SVG 20010904//EN"
 "http://www.w3.org/TR/2001/REC-SVG-20010904/DTD/svg10.dtd">
<svg version="1.0" xmlns="http://www.w3.org/2000/svg"
 width="300.000000pt" height="66.000000pt" viewBox="0 0 300.000000 66.000000"
 preserveAspectRatio="xMidYMid meet">
<metadata>
Created by potrace 1.10, written by Peter Selinger 2001-2011
</metadata>
<g transform="translate(0.000000,66.000000) scale(0.100000,-0.100000)"
fill="#741b47" stroke="none">
<path d="M139 653 c-24 -6 -41 -50 -29 -74 6 -10 17 -19 24 -19 23 0 48 37 44
66 -3 29 -12 35 -39 27z m21 -32 c0 -10 -7 -24 -15 -31 -13 -10 -15 -9 -15 12
0 14 3 28 7 31 12 13 23 7 23 -12z"/>
<path d="M574 636 c-9 -36 4 -65 32 -72 28 -7 29 -7 38 23 5 17 1 29 -18 48
-31 31 -44 32 -52 1z m49 -47 c-16 -16 -33 -2 -33 29 l0 26 22 -22 c16 -16 19
-25 11 -33z"/>
<path d="M314 640 c-11 -4 -32 -22 -47 -39 -18 -22 -34 -31 -56 -31 -45 0 -38
-16 9 -23 45 -6 90 -35 120 -77 21 -30 21 -30 3 -104 l-19 -74 -39 19 c-80 39
-138 115 -151 199 -5 29 -10 38 -17 31 -8 -8 -8 -23 0 -52 9 -34 8 -39 -4 -35
-36 14 -63 17 -63 8 0 -6 17 -16 38 -23 23 -7 56 -33 89 -69 33 -36 70 -65
101 -78 42 -18 50 -26 55 -54 3 -18 8 -41 12 -51 6 -14 -1 -13 -44 9 -43 23
-51 31 -51 55 0 16 -5 29 -11 29 -7 0 -10 -12 -7 -30 4 -29 4 -30 -29 -24 -20
4 -33 2 -33 -4 0 -6 19 -13 43 -17 23 -4 56 -14 72 -22 40 -20 86 -64 79 -75
-9 -14 7 -108 18 -108 5 0 8 26 7 62 -2 57 -1 63 27 85 37 31 108 63 140 63
13 0 24 5 24 11 0 7 -12 10 -30 7 -28 -4 -30 -3 -30 29 0 18 -4 33 -10 33 -5
0 -10 -15 -10 -34 0 -30 -5 -37 -46 -60 l-46 -26 6 23 c3 12 6 34 6 49 0 22 7
29 37 39 23 7 66 40 110 85 45 45 85 75 103 79 17 4 30 11 30 16 0 13 -21 11
-53 -6 -26 -13 -28 -13 -23 3 13 42 17 92 7 92 -6 0 -11 -6 -11 -13 0 -74 -77
-190 -151 -227 -49 -25 -49 -25 -49 8 0 16 -7 49 -16 75 -15 45 -15 48 6 76
31 44 68 70 117 82 48 13 60 35 13 26 -23 -5 -32 -2 -40 14 -27 49 -124 74
-186 49z m56 -23 c0 -7 -9 -18 -20 -25 -36 -22 -19 -72 25 -72 44 0 61 50 25
72 -25 16 -26 38 -1 38 21 0 83 -39 88 -57 3 -6 -9 -19 -25 -27 -17 -9 -43
-32 -60 -51 l-29 -36 -17 26 c-9 14 -35 37 -57 52 l-41 27 36 33 c36 33 76 44
76 20z m30 -53 c0 -19 -28 -30 -42 -16 -8 8 -8 15 1 26 14 17 41 10 41 -10z
m1 -273 c1 -66 -10 -129 -22 -136 -26 -17 -37 179 -13 240 7 17 9 16 21 -14 8
-18 14 -59 14 -90z"/>
<path d="M20 536 c0 -29 33 -56 60 -49 37 10 5 73 -36 73 -19 0 -24 -5 -24
-24z m51 -12 c12 -14 11 -16 -5 -13 -11 2 -21 10 -24 17 -5 17 13 15 29 -4z"/>
<path d="M671 541 c-25 -25 -27 -47 -5 -55 25 -10 66 21 62 47 -4 29 -32 33
-57 8z m37 -13 c-3 -7 -13 -15 -24 -17 -16 -3 -17 -1 -5 13 16 19 34 21 29 4z"/>
<path d="M194 499 c-18 -20 -18 -21 1 -35 27 -20 59 -17 81 7 18 20 18 21 -1
35 -27 20 -59 17 -81 -7z m66 -14 c0 -9 -9 -15 -25 -15 -24 0 -32 10 -18 23
12 13 43 7 43 -8z"/>
<path d="M476 501 c-17 -19 -17 -20 8 -36 30 -20 65 -16 80 8 9 15 7 21 -8 33
-27 20 -60 18 -80 -5z m69 -11 c8 -13 -20 -24 -41 -16 -20 8 -9 26 16 26 10 0
22 -5 25 -10z"/>
<path d="M931 428 c-30 -76 -92 -198 -101 -198 -5 0 -10 -4 -10 -10 0 -5 19
-10 43 -9 33 0 39 2 26 11 -13 9 -14 16 -5 40 9 25 15 28 53 28 36 0 45 -4 55
-25 8 -19 8 -28 -2 -40 -11 -13 -7 -15 34 -15 25 0 46 5 46 10 0 6 -4 10 -9
10 -5 0 -19 24 -31 53 -75 177 -82 188 -99 145z m22 -65 c2 -10 8 -26 12 -35
6 -15 2 -18 -25 -18 -27 0 -31 3 -25 18 4 9 10 25 12 35 3 9 9 17 13 17 4 0
10 -8 13 -17z"/>
<path d="M1153 437 c24 -20 25 -181 0 -209 -15 -17 -14 -18 30 -18 26 0 47 5
47 10 0 6 -4 10 -10 10 -5 0 -10 19 -10 43 l0 42 47 1 c73 2 105 54 64 105
-17 21 -29 24 -103 27 -72 2 -81 1 -65 -11z m122 -27 c23 -25 13 -65 -17 -74
-44 -11 -48 -8 -48 44 0 46 2 50 23 50 13 0 32 -9 42 -20z"/>
<path d="M1410 440 c0 -5 5 -10 10 -10 6 0 10 -40 10 -100 0 -60 -4 -100 -10
-100 -5 0 -10 -4 -10 -10 0 -5 21 -10 47 -10 45 0 46 1 29 19 -22 24 -19 88 4
83 25 -6 79 8 95 24 24 25 19 70 -11 93 -21 17 -41 21 -95 21 -39 0 -69 -4
-69 -10z m114 -20 c20 -7 26 -17 26 -39 0 -32 -22 -51 -59 -51 -18 0 -21 6
-21 50 0 54 6 59 54 40z"/>
<path d="M1683 436 c14 -11 17 -29 17 -106 0 -77 -3 -95 -17 -106 -15 -11 -4
-13 78 -14 92 0 97 1 103 23 10 37 7 41 -16 21 -16 -14 -36 -20 -63 -18 l-40
1 -3 97 c-2 81 0 96 13 96 8 0 15 5 15 10 0 6 -24 10 -52 10 -46 -1 -51 -2
-35 -14z"/>
<path d="M1953 436 c14 -11 17 -29 17 -106 0 -77 -3 -95 -17 -106 -15 -11 -4
-13 79 -14 l96 0 11 30 c11 34 3 39 -20 12 -12 -14 -28 -18 -60 -16 l-44 2 -3
44 -3 45 35 -2 c20 -1 43 -8 51 -15 13 -11 15 -7 15 24 0 33 -14 50 -22 25 -2
-5 -20 -12 -41 -14 l-37 -3 0 44 0 44 42 0 c24 0 49 -7 60 -17 17 -15 18 -15
18 10 l0 27 -97 0 c-84 -1 -95 -3 -80 -14z"/>
<path d="M2276 340 c-26 -61 -52 -110 -57 -110 -5 0 -9 -4 -9 -10 0 -5 16 -10
35 -10 33 0 48 14 24 22 -7 2 -7 12 2 31 10 23 18 27 54 27 36 0 44 -4 54 -27
9 -19 9 -29 2 -31 -27 -9 -7 -22 34 -22 43 0 60 12 33 23 -7 2 -33 52 -58 111
-25 58 -50 106 -55 106 -6 0 -32 -49 -59 -110z m83 -30 c1 -4 -14 -4 -33 -2
l-34 4 16 40 16 41 17 -39 c10 -21 18 -41 18 -44z"/>
<path d="M2547 432 c-22 -24 -22 -66 -1 -83 9 -8 38 -25 63 -39 36 -19 46 -31
46 -50 0 -22 -5 -25 -36 -28 -29 -2 -41 2 -57 22 -26 34 -32 33 -32 -7 l0 -33
61 -2 c82 -3 111 15 107 66 -3 34 -8 40 -62 68 -65 35 -80 52 -64 71 22 27 98
2 98 -33 0 -8 5 -14 10 -14 6 0 10 17 10 38 l0 38 -63 2 c-51 2 -67 -1 -80
-16z"/>
<path d="M2770 441 c0 -5 7 -11 15 -15 12 -4 15 -25 15 -96 0 -71 -3 -92 -15
-96 -38 -15 -7 -24 79 -24 89 0 94 1 100 23 10 37 7 41 -16 21 -16 -14 -36
-20 -63 -18 -40 1 -40 1 -43 45 l-3 44 38 -1 c20 -1 39 -7 41 -13 8 -24 22 -9
22 24 0 33 -14 48 -22 24 -2 -5 -20 -12 -41 -14 l-37 -3 0 44 0 44 45 0 c31 0
47 -5 51 -15 9 -24 24 -17 24 10 0 25 0 25 -95 25 -52 0 -95 -4 -95 -9z"/>
<path d="M240 401 c0 -34 23 -61 51 -61 25 0 26 50 1 73 -30 27 -52 22 -52
-12z m50 -28 c0 -24 -25 -9 -28 17 -3 21 -2 22 12 11 9 -7 16 -20 16 -28z"/>
<path d="M462 414 c-22 -15 -30 -58 -13 -69 13 -8 59 15 66 33 8 20 -4 52 -18
52 -7 0 -23 -7 -35 -16z m38 -19 c0 -8 -9 -19 -20 -25 -15 -8 -20 -8 -20 3 0
14 19 37 32 37 4 0 8 -7 8 -15z"/>
<path d="M623 403 c-19 -7 -16 -48 5 -66 10 -10 31 -17 45 -17 35 0 36 32 2
65 -24 25 -30 27 -52 18z m42 -33 c21 -23 12 -39 -13 -24 -19 12 -29 44 -14
44 5 0 17 -9 27 -20z"/>
<path d="M66 378 c-25 -36 -21 -58 12 -58 33 0 62 27 62 58 0 31 -53 31 -74 0z
m52 -10 c-6 -16 -36 -34 -44 -25 -9 9 15 37 33 37 8 0 13 -5 11 -12z"/>
<path d="M155 311 c-8 -26 3 -49 27 -57 25 -7 38 10 30 40 -9 38 -46 49 -57
17z m39 -17 c9 -22 -3 -32 -14 -14 -12 19 -12 30 -1 30 5 0 12 -7 15 -16z"/>
<path d="M546 311 c-22 -24 -13 -61 14 -61 24 0 43 34 35 60 -8 25 -27 25 -49
1z m28 -25 c-6 -16 -24 -23 -24 -8 0 10 22 33 27 28 2 -2 1 -11 -3 -20z"/>
<path d="M58 259 c-25 -14 -22 -36 7 -55 51 -33 111 11 66 48 -26 20 -47 22
-73 7z m61 -22 c13 -16 5 -27 -19 -27 -20 0 -43 24 -33 33 11 12 40 8 52 -6z"/>
<path d="M610 248 l-21 -23 22 -17 c26 -22 48 -23 77 -2 27 19 28 40 3 54 -31
16 -58 12 -81 -12z m75 -8 c9 -15 -43 -36 -56 -23 -6 6 -8 16 -5 22 9 14 53
14 61 1z"/>
<path d="M138 166 c-12 -28 -5 -56 15 -56 24 0 49 37 42 59 -9 29 -43 27 -57
-3z m42 -5 c0 -5 -7 -14 -15 -21 -12 -10 -15 -10 -15 2 0 8 3 18 7 21 9 10 23
9 23 -2z"/>
<path d="M567 183 c-15 -14 -6 -53 15 -67 25 -18 38 -7 38 31 0 27 -37 52 -53
36z m33 -39 c0 -8 -4 -14 -10 -14 -5 0 -10 9 -10 21 0 11 5 17 10 14 6 -3 10
-13 10 -21z"/>
<path d="M254 138 c-29 -13 -46 -52 -31 -67 28 -28 107 1 107 39 0 11 -9 24
-19 30 -23 12 -29 12 -57 -2z m45 -17 c21 -13 -4 -41 -35 -41 -28 0 -32 24 -6
39 21 13 24 13 41 2z"/>
<path d="M442 139 c-28 -11 -28 -30 1 -57 27 -25 85 -30 93 -8 15 38 -49 82
-94 65z m68 -39 c9 -17 8 -20 -14 -20 -21 0 -56 22 -56 36 0 2 13 4 30 4 19 0
33 -7 40 -20z"/>
</g>
</svg>
