<?xml version="1.0" standalone="no"?>
<!DOCTYPE svg PUBLIC "-//W3C//DTD SVG 20010904//EN"
 "http://www.w3.org/TR/2001/REC-SVG-20010904/DTD/svg10.dtd">
<svg version="1.0" xmlns="http://www.w3.org/2000/svg"
 width="213.000000pt" height="75.000000pt" viewBox="0 0 213.000000 75.000000"
 preserveAspectRatio="xMidYMid meet">
<metadata>
Created by potrace 1.10, written by Peter Selinger 2001-2011
</metadata>
<g transform="translate(0.000000,75.000000) scale(0.100000,-0.100000)"
fill="#000000" stroke="none">
<path d="M110 742 c-45 -5 -55 -11 -42 -24 19 -19 14 -83 -9 -112 -11 -14 -18
-30 -15 -35 7 -10 116 28 116 40 0 12 -13 11 -46 -1 -25 -10 -26 -9 -20 12 3
13 6 31 6 41 0 11 8 17 25 17 14 0 25 -4 25 -10 0 -5 -9 -10 -20 -10 -11 0
-20 -4 -20 -10 0 -5 9 -10 21 -10 12 0 41 -21 69 -51 42 -44 50 -49 76 -43 38
9 44 13 44 28 0 8 -11 11 -32 8 -27 -3 -41 4 -73 32 l-40 36 53 -6 c33 -4 52
-3 52 4 0 14 -47 24 -80 17 -16 -3 -31 -1 -35 4 -3 7 2 11 14 11 20 0 80 45
71 53 -7 6 -109 13 -140 9z m67 -18 c36 -10 16 -24 -33 -24 -32 0 -44 4 -44
15 0 16 36 20 77 9z"/>
<path d="M390 724 c-37 -12 -57 -48 -23 -42 20 3 23 -26 9 -96 -6 -29 -4 -37
6 -34 9 3 14 28 16 74 2 45 8 74 19 86 21 24 15 27 -27 12z"/>
<path d="M985 730 c-3 -6 -50 -10 -106 -10 -82 0 -99 -3 -99 -15 0 -11 7 -14
25 -9 25 6 36 -10 13 -19 -10 -4 -10 -6 0 -6 7 -1 10 -6 7 -12 -5 -6 -11 -4
-19 7 -8 10 -18 14 -25 10 -8 -5 -9 -12 -2 -20 5 -6 11 -29 13 -50 l3 -38 65
0 65 0 7 38 c3 22 8 46 10 54 1 8 -4 16 -12 16 -8 1 -23 2 -32 3 -10 0 -18 6
-18 11 0 13 36 13 60 0 15 -8 24 -6 40 10 18 18 27 40 16 40 -3 0 -8 -4 -11
-10z m-129 -47 c-10 -10 -19 5 -10 18 6 11 8 11 12 0 2 -7 1 -15 -2 -18z m34
-43 c10 0 9 4 -1 17 -12 14 -12 16 1 11 9 -3 15 -17 15 -39 0 -33 -1 -34 -47
-37 -31 -2 -48 1 -48 8 0 7 8 9 21 5 11 -4 32 -4 47 0 25 7 25 8 7 15 -11 4
-32 5 -47 3 -17 -3 -28 -1 -28 6 0 6 6 11 14 11 8 0 17 8 21 18 6 16 7 16 19
0 7 -10 19 -18 26 -18z"/>
<path d="M452 718 c3 -7 15 -15 27 -16 16 -3 22 1 19 10 -3 7 -15 15 -27 16
-16 3 -22 -1 -19 -10z"/>
<path d="M520 720 c0 -14 26 -23 41 -15 8 6 7 10 -2 16 -19 12 -39 11 -39 -1z"/>
<path d="M710 705 c0 -10 10 -15 31 -15 27 0 30 2 19 15 -7 8 -21 15 -31 15
-11 0 -19 -7 -19 -15z"/>
<path d="M490 685 c-6 -8 -25 -15 -42 -17 -39 -4 -50 -28 -13 -28 14 0 37 7
50 16 22 15 26 15 40 0 9 -9 21 -16 26 -16 5 0 9 -4 9 -8 0 -5 -25 -7 -57 -4
-55 5 -56 4 -50 -19 4 -13 7 -30 7 -36 0 -9 17 -13 49 -13 44 0 49 2 55 26 4
16 12 24 20 21 14 -6 76 27 76 40 0 5 -22 8 -49 8 -35 0 -58 6 -79 22 -26 19
-32 20 -42 8z m48 -87 c-7 -20 -58 -23 -58 -4 0 11 10 16 31 16 20 0 29 -4 27
-12z"/>
<path d="M718 673 c-17 -3 -28 -11 -28 -20 0 -10 5 -13 18 -8 9 4 25 10 35 12
16 5 25 25 10 22 -5 -1 -20 -4 -35 -6z"/>
<path d="M727 622 c-19 -21 -22 -38 -7 -47 8 -5 40 43 40 60 0 11 -18 4 -33
-13z"/>
<path d="M220 436 c-6 -8 -10 -28 -8 -43 2 -23 -1 -29 -20 -31 -12 -2 -29 4
-38 12 -26 26 -42 19 -46 -21 -3 -21 -8 -46 -12 -55 -6 -13 -4 -18 6 -18 17 0
58 41 58 58 0 16 11 15 34 -3 13 -10 17 -21 12 -37 -11 -44 -21 -49 -109 -55
-70 -5 -86 -9 -90 -24 -8 -30 12 -40 51 -24 19 8 51 15 72 15 35 0 38 -2 43
-32 2 -18 3 -36 1 -40 -8 -13 -104 -20 -118 -9 -11 9 -18 7 -30 -10 -14 -21
-14 -24 1 -41 22 -24 55 -23 134 7 l67 26 62 -40 c53 -34 65 -38 81 -28 20 12
23 52 4 52 -13 0 -105 35 -105 40 0 2 10 20 21 40 16 26 26 34 38 29 25 -11
117 -17 145 -10 14 3 33 20 41 36 15 29 15 30 -9 30 -14 0 -28 -4 -31 -10 -13
-21 -165 -7 -165 15 0 15 -27 28 -40 20 -5 -3 -7 -12 -3 -20 3 -11 -2 -15 -17
-15 -17 0 -21 4 -15 18 4 9 11 29 17 43 7 21 18 28 48 33 21 3 45 9 54 12 27
10 18 -10 -14 -31 -34 -23 -37 -30 -15 -39 29 -11 114 38 115 66 0 4 -14 15
-31 24 -30 15 -54 15 -128 -3 -21 -5 -23 -3 -18 17 6 24 -7 60 -22 60 -5 0
-14 -7 -21 -14z m80 -200 c0 -3 -4 -8 -10 -11 -5 -3 -10 -1 -10 4 0 6 5 11 10
11 6 0 10 -2 10 -4z m-40 -27 c0 -6 -8 -21 -19 -34 -13 -18 -21 -21 -30 -12
-18 18 -13 37 12 47 30 12 37 12 37 -1z"/>
<path d="M699 434 c-10 -12 -10 -20 -1 -35 7 -10 12 -21 12 -24 0 -3 -29 -5
-64 -5 -67 0 -81 -6 -66 -29 6 -10 15 -11 36 -4 32 11 94 6 94 -8 0 -5 -29 -9
-64 -9 -49 0 -65 -4 -70 -16 -10 -25 -7 -32 12 -38 11 -4 22 -22 28 -44 9 -35
11 -37 43 -34 50 5 36 -18 -32 -52 -46 -23 -62 -27 -80 -19 -29 13 -47 6 -47
-17 0 -21 28 -40 57 -40 23 0 91 35 122 64 l23 21 -6 -60 c-6 -66 2 -89 30
-83 17 3 19 12 17 82 l-2 78 42 -42 c78 -78 145 -91 189 -36 l27 34 -67 -1
c-69 -1 -132 22 -162 58 -13 15 -11 16 21 10 35 -6 35 -6 66 61 18 37 30 70
28 74 -2 4 -36 5 -75 3 -42 -2 -70 1 -70 7 0 8 78 16 117 11 14 -2 35 33 26
42 -3 4 -14 2 -25 -4 -10 -5 -40 -9 -66 -7 -42 3 -47 6 -49 28 0 14 -1 31 -2
38 -1 17 -26 15 -42 -4z m1 -150 c0 -11 -8 -14 -32 -12 -46 4 -49 28 -4 28 26
0 36 -4 36 -16z m127 1 c-2 -5 -22 -11 -45 -12 -31 -1 -42 2 -42 13 0 11 11
14 45 12 25 -2 43 -7 42 -13z m-127 -50 c0 -9 -9 -15 -25 -15 -16 0 -25 6 -25
15 0 9 9 15 25 15 16 0 25 -6 25 -15z m110 0 c0 -10 -11 -15 -35 -15 -24 0
-35 5 -35 15 0 10 11 15 35 15 24 0 35 -5 35 -15z m-70 -44 c0 -4 -6 -16 -14
-27 -14 -18 -15 -17 -11 11 2 17 4 31 4 33 2 6 21 -9 21 -17z"/>
<path d="M1307 444 c-4 -4 -7 -16 -7 -26 0 -14 -8 -18 -34 -18 -31 0 -63 -20
-50 -32 3 -3 23 -4 45 -1 25 4 39 2 39 -6 0 -6 -20 -12 -47 -12 -27 -1 -56 -2
-67 -3 -21 -1 -41 -42 -25 -52 6 -3 18 1 27 9 25 22 66 33 60 16 -2 -7 -15
-16 -28 -19 -13 -3 -26 -12 -28 -19 -4 -11 3 -13 27 -8 35 7 43 -8 9 -17 -13
-3 -19 -9 -13 -13 14 -11 205 -4 205 8 0 5 -11 9 -25 9 -14 0 -25 5 -25 11 0
8 15 10 44 7 48 -6 73 3 62 21 -5 7 -20 9 -40 6 -24 -5 -36 -2 -50 14 -19 21
-19 21 20 18 29 -1 39 2 39 13 0 16 -7 17 -72 6 -27 -4 -43 -2 -43 4 0 5 18
10 40 10 29 0 40 4 40 15 0 10 -10 15 -34 15 -28 0 -35 4 -38 22 -3 22 -19 33
-31 22z m51 -126 c-7 -20 -72 -22 -88 -4 -11 14 -6 16 40 16 37 0 50 -4 48
-12z m-18 -48 c0 -5 -14 -10 -31 -10 -17 0 -28 4 -24 10 3 6 17 10 31 10 13 0
24 -4 24 -10z"/>
<path d="M1107 388 c-2 -7 0 -28 5 -47 21 -75 -15 -141 -76 -141 -42 0 -61
-19 -43 -44 11 -15 20 -17 57 -9 35 7 48 15 60 38 8 17 16 32 17 34 1 2 11 -7
22 -20 14 -17 23 -21 31 -13 7 8 4 20 -13 45 -17 26 -24 50 -25 92 0 31 -3 61
-7 67 -9 14 -22 13 -28 -2z"/>
<path d="M1933 389 c-6 -6 -9 -26 -6 -45 l5 -33 -58 -3 c-43 -2 -59 -7 -59
-17 0 -10 16 -14 57 -16 32 -1 59 -3 61 -6 2 -2 1 -39 -2 -82 -7 -87 -17 -101
-68 -92 -18 3 -33 2 -33 -3 0 -21 28 -32 81 -32 53 0 57 2 63 26 4 14 4 59 0
100 l-7 74 56 -2 c47 -2 60 2 82 22 14 13 25 26 25 30 0 4 -36 5 -81 2 l-81
-5 2 34 c1 19 2 40 1 47 -1 15 -23 16 -38 1z m27 -99 c0 -5 -2 -10 -4 -10 -3
0 -8 5 -11 10 -3 6 -1 10 4 10 6 0 11 -4 11 -10z"/>
<path d="M1594 381 c-14 -14 -1 -31 24 -31 21 0 28 -5 29 -21 2 -18 -2 -19
-29 -14 -30 7 -30 7 -23 -26 9 -38 8 -90 -1 -131 -7 -36 2 -49 27 -40 11 5 46
5 77 1 31 -3 62 -4 68 -2 6 2 14 27 17 56 3 29 9 74 13 101 l7 49 -36 -6 c-32
-5 -37 -3 -37 13 0 14 9 20 37 22 26 2 39 8 41 20 3 15 -8 17 -103 15 -59 -1
-108 -4 -111 -6z m106 -51 c-12 -22 -30 -18 -30 6 0 8 9 14 20 14 18 0 19 -3
10 -20z m-40 -49 c0 -12 -20 -25 -27 -18 -7 7 6 27 18 27 5 0 9 -4 9 -9z m40
-10 c0 -24 23 -43 44 -35 17 7 19 3 11 -18 -4 -8 -21 -12 -53 -11 -79 2 -79 2
-49 24 15 11 27 29 27 40 0 10 5 19 10 19 6 0 10 -8 10 -19z m60 -1 c0 -11 -4
-20 -10 -20 -5 0 -10 2 -10 4 0 2 -3 11 -6 20 -4 11 -1 16 10 16 9 0 16 -8 16
-20z m-10 -100 c0 -5 -17 -10 -37 -10 -21 0 -48 -3 -60 -6 -17 -5 -23 -2 -23
10 0 13 11 16 60 16 33 0 60 -4 60 -10z"/>
<path d="M1056 304 c-4 -9 -1 -23 5 -31 10 -11 15 -11 30 3 14 13 16 20 8 31
-15 18 -36 17 -43 -3z"/>
<path d="M1843 224 c-37 -16 -47 -54 -15 -54 20 0 62 39 62 58 0 15 -6 14 -47
-4z"/>
<path d="M1212 208 c3 -7 17 -15 32 -18 l28 -5 -31 -22 c-16 -13 -41 -23 -54
-23 -13 0 -27 -3 -30 -6 -13 -13 14 -44 38 -44 28 0 83 44 96 77 13 35 32 18
25 -22 -7 -38 10 -61 52 -71 15 -3 43 -10 62 -15 76 -18 120 10 120 77 l0 23
-33 -22 c-28 -19 -42 -22 -97 -17 -65 5 -65 5 -68 38 -3 30 -1 32 27 32 21 0
31 5 31 15 0 12 -18 15 -101 15 -76 0 -100 -3 -97 -12z"/>
</g>
</svg>
