<?xml version="1.0" standalone="no"?>
<!DOCTYPE svg PUBLIC "-//W3C//DTD SVG 20010904//EN"
 "http://www.w3.org/TR/2001/REC-SVG-20010904/DTD/svg10.dtd">
<svg version="1.0" xmlns="http://www.w3.org/2000/svg"
 width="600.000000pt" height="600.000000pt" viewBox="0 0 600.000000 600.000000"
 preserveAspectRatio="xMidYMid meet">
<metadata>
Created by potrace 1.10, written by Peter Selinger 2001-2011
</metadata>
<g transform="translate(0.000000,600.000000) scale(0.100000,-0.100000)"
fill="#000000" stroke="none">
<path d="M0 3000 l0 -3000 3000 0 3000 0 0 3000 0 3000 -3000 0 -3000 0 0
-3000z m1833 1647 c16 -6 17 -92 17 -1145 0 -872 -3 -1141 -12 -1150 -18 -18
-717 -17 -741 1 -16 11 -17 89 -15 1152 l3 1140 45 5 c65 7 684 5 703 -3z
m1539 -9 c9 -14 11 -710 2 -733 -5 -13 -60 -15 -384 -15 -331 0 -379 2 -384
15 -8 22 -6 718 2 732 11 17 28 18 401 16 274 -2 356 -5 363 -15z m1515 8 c11
-4 13 -219 13 -1145 0 -1117 0 -1141 -19 -1151 -30 -16 -712 -14 -734 3 -16
11 -17 89 -15 1152 l3 1140 45 5 c57 6 689 2 707 -4z m-1509 -1908 c2 -323 0
-368 -14 -382 -13 -14 -60 -16 -374 -16 -313 0 -361 2 -374 16 -14 13 -16 62
-16 378 0 199 3 366 7 369 4 4 178 6 387 5 l381 -3 3 -367z m-1862 -912 c3
-14 3 -34 -1 -45 -5 -18 -16 -21 -88 -23 l-82 -3 -3 -207 c-2 -199 -3 -208
-23 -219 -16 -8 -28 -8 -45 0 l-24 11 0 209 0 210 -82 3 c-83 3 -83 3 -86 31
-7 58 -11 57 217 57 l211 0 6 -24z m334 -86 l5 -105 100 -3 c153 -4 145 -10
145 108 0 97 1 100 24 106 14 3 33 4 43 2 17 -3 18 -20 21 -255 2 -241 1 -253
-17 -263 -13 -7 -28 -7 -45 0 -25 9 -26 12 -26 105 0 68 -4 97 -12 100 -24 7
-216 12 -227 6 -6 -4 -11 -50 -13 -106 -3 -98 -3 -98 -31 -108 -55 -18 -57
-10 -57 263 0 135 3 250 7 254 4 4 23 6 43 4 l35 -3 5 -105z m925 65 l0 -40
-105 -2 c-153 -4 -150 -3 -150 -68 0 -30 1 -56 3 -56 1 -1 58 -5 127 -8 l125
-6 0 -40 0 -40 -116 -1 c-63 0 -121 -4 -127 -8 -16 -10 -16 -103 1 -113 6 -4
64 -10 127 -13 l115 -5 3 -28 c6 -53 -6 -57 -168 -54 -98 2 -153 7 -163 15
-12 10 -14 52 -13 250 1 130 5 243 10 250 6 9 47 12 169 10 l162 -3 0 -40z
m333 -60 c2 -64 7 -102 15 -107 16 -10 218 -10 234 0 8 5 13 43 15 107 l3 100
40 0 40 0 0 -254 0 -254 -29 -10 c-45 -15 -57 10 -55 111 2 46 -2 87 -7 92 -7
7 -58 10 -130 8 l-119 -3 -3 -100 c-2 -64 -7 -102 -15 -107 -15 -10 -59 0 -69
15 -12 19 -10 465 3 488 8 15 19 19 42 17 l32 -3 3 -100z m1790 -152 c1 -173
-1 -253 -8 -253 -6 0 -43 30 -83 67 -84 78 -75 71 -163 148 -37 33 -72 60 -78
60 -7 0 -13 -51 -16 -145 l-5 -145 -35 3 c-19 1 -37 8 -41 14 -11 17 -9 477 2
484 15 9 18 7 271 -225 70 -64 76 -57 73 96 -2 78 1 133 8 141 6 7 24 12 41
10 l31 -3 3 -252z m-805 -3 c64 -129 117 -242 117 -252 0 -14 -6 -17 -25 -13
-14 3 -36 7 -50 10 -16 3 -27 14 -31 30 -9 38 -33 45 -143 45 -106 0 -131 -5
-131 -25 0 -28 -38 -59 -73 -61 -42 -1 -56 20 -32 46 8 9 15 24 15 32 0 9 7
21 15 28 8 7 15 16 15 21 0 8 45 102 97 204 14 28 40 78 57 112 17 35 36 61
41 60 6 -2 63 -109 128 -237z"/>
<path d="M3949 1618 c-7 -13 -21 -38 -31 -56 -31 -56 -26 -62 48 -62 63 0 65
1 58 23 -8 26 -54 117 -60 117 -2 0 -9 -10 -15 -22z"/>
</g>
</svg>
