<?xml version="1.0" standalone="no"?>
<!DOCTYPE svg PUBLIC "-//W3C//DTD SVG 20010904//EN"
 "http://www.w3.org/TR/2001/REC-SVG-20010904/DTD/svg10.dtd">
<svg version="1.0" xmlns="http://www.w3.org/2000/svg"
 width="300.000000pt" height="250.000000pt" viewBox="0 0 300.000000 250.000000"
 preserveAspectRatio="xMidYMid meet">
<metadata>
Created by potrace 1.10, written by Peter Selinger 2001-2011
</metadata>
<g transform="translate(0.000000,250.000000) scale(0.050000,-0.050000)"
fill="#000000" stroke="none">
<path d="M1180 4250 c0 -16 -9 -30 -20 -30 -11 0 -20 -13 -20 -30 0 -16 -9
-30 -20 -30 -11 0 -20 -13 -20 -30 0 -16 -9 -30 -20 -30 -11 0 -20 -13 -20
-30 0 -16 -9 -30 -20 -30 -11 0 -20 -40 -20 -90 0 -49 -9 -90 -20 -90 -11 0
-20 -27 -20 -60 0 -33 9 -60 20 -60 12 0 20 -63 20 -150 0 -87 -8 -150 -20
-150 -12 0 -20 -63 -20 -150 0 -87 -8 -150 -20 -150 -12 0 -20 -77 -20 -191 0
-123 7 -187 20 -179 11 7 20 -2 20 -19 0 -17 9 -31 20 -31 11 0 20 -13 20 -30
0 -16 9 -30 20 -30 11 0 20 -13 20 -30 0 -16 9 -30 20 -30 11 0 20 -13 20 -30
0 -16 9 -30 20 -30 11 0 20 -18 20 -40 0 -22 -9 -40 -20 -40 -11 0 -20 -28
-20 -61 0 -36 -8 -56 -20 -49 -11 7 -20 -7 -20 -30 0 -23 -9 -37 -20 -30 -11
7 -20 -6 -20 -29 0 -22 9 -41 20 -41 11 0 20 -13 20 -30 0 -16 9 -30 20 -30
11 0 20 -13 20 -30 0 -17 18 -30 40 -30 27 0 40 13 40 40 0 49 35 53 44 5 4
-22 25 -35 56 -35 55 0 60 -7 60 -80 0 -37 -11 -50 -40 -50 -22 0 -40 -13 -40
-30 0 -17 -18 -30 -40 -30 -22 0 -40 -13 -40 -30 0 -16 -9 -30 -20 -30 -11 0
-20 -13 -20 -30 0 -16 -9 -30 -20 -30 -11 0 -20 -13 -20 -30 0 -16 -9 -30 -20
-30 -11 0 -20 -13 -20 -30 0 -17 -18 -30 -40 -30 -22 0 -40 -13 -40 -30 0 -16
-9 -30 -20 -30 -11 0 -20 -13 -20 -30 0 -16 -9 -30 -20 -30 -11 0 -20 -13 -20
-30 0 -16 -9 -30 -20 -30 -11 0 -20 -13 -20 -30 0 -16 -9 -30 -20 -30 -11 0
-20 -53 -20 -120 0 -67 9 -120 20 -120 11 0 20 -13 20 -30 0 -23 27 -30 120
-30 107 0 120 4 120 40 0 22 9 40 20 40 13 0 20 -197 20 -550 0 -353 7 -550
20 -550 11 0 20 -13 20 -30 0 -16 13 -30 29 -30 18 0 25 12 18 30 -6 16 -1 30
11 30 14 0 22 46 22 120 0 67 9 120 20 120 11 0 20 41 20 90 0 50 -9 90 -20
90 -11 0 -20 27 -20 60 0 33 9 60 20 60 12 0 20 103 20 270 0 167 -8 270 -20
270 -11 0 -20 14 -20 30 0 20 20 30 60 30 40 0 60 10 60 30 0 17 18 30 40 30
22 0 40 13 40 30 0 17 18 30 41 30 22 0 45 14 52 30 6 17 28 30 49 30 21 0 38
14 38 30 0 17 9 30 20 30 11 0 20 27 20 60 0 33 -8 60 -18 60 -9 0 -22 18 -28
40 -13 52 -75 52 -88 0 -6 -22 -27 -40 -48 -40 -21 0 -38 -13 -38 -30 0 -20
-20 -30 -60 -30 -40 0 -60 -10 -60 -30 0 -20 -20 -30 -60 -30 -40 0 -60 -10
-60 -30 0 -22 -22 -30 -80 -30 -58 0 -80 -8 -80 -30 0 -17 -18 -30 -40 -30
-27 0 -40 13 -40 40 0 27 13 40 40 40 23 0 40 13 40 31 0 23 12 28 40 19 28
-9 40 -4 40 19 0 17 9 31 20 31 11 0 20 14 20 30 0 17 9 30 20 30 11 0 20 14
20 30 0 17 8 30 18 30 9 0 22 18 28 40 7 27 21 36 42 28 21 -8 32 -1 32 20 0
18 9 32 20 32 11 0 20 14 20 30 0 17 9 30 20 30 11 0 20 14 20 30 0 17 9 30
20 30 11 0 20 9 20 19 0 10 23 43 50 73 49 53 69 148 30 148 -11 0 -20 9 -20
19 0 10 -22 43 -50 73 -63 68 -64 131 0 191 57 54 65 127 17 153 -22 13 -29
34 -22 63 8 28 2 47 -17 54 -15 6 -28 24 -28 39 0 15 -9 28 -20 28 -11 0 -20
14 -20 30 0 17 -9 30 -20 30 -11 0 -20 14 -20 30 0 17 -9 30 -20 30 -11 0 -20
14 -20 30 0 17 -9 30 -20 30 -12 0 -20 83 -20 210 0 197 3 210 40 210 22 0 40
9 40 20 0 19 40 74 104 142 19 20 29 52 22 76 -7 27 1 46 22 54 42 16 42 68 0
68 -24 0 -30 13 -23 52 6 32 0 55 -17 62 -16 6 -28 36 -28 68 0 32 -9 58 -20
58 -11 0 -20 27 -20 60 0 33 -9 60 -20 60 -11 0 -20 27 -20 60 0 33 -9 60 -20
60 -11 0 -20 14 -20 30 0 20 -20 30 -60 30 -40 0 -60 -10 -60 -30z"/>
<path d="M5100 2570 c0 -16 -9 -30 -20 -30 -11 0 -20 -13 -20 -30 0 -27 -24
-39 -65 -32 -8 1 -15 -17 -15 -39 0 -23 -9 -36 -20 -29 -11 7 -20 -6 -20 -29
0 -22 -9 -41 -20 -41 -11 0 -20 -36 -20 -80 0 -44 -9 -80 -20 -80 -11 0 -20
-57 -20 -130 0 -73 9 -130 20 -130 11 0 20 -13 20 -30 0 -17 18 -30 40 -30 22
0 40 -13 40 -30 0 -16 9 -30 20 -30 11 0 20 -13 20 -30 0 -17 18 -30 40 -30
22 0 40 13 40 30 0 17 9 30 20 30 11 0 20 13 20 28 0 15 14 33 31 40 17 6 26
21 19 32 -7 11 6 20 29 20 23 0 41 13 41 30 0 17 9 30 20 30 11 0 20 27 20 60
0 33 9 60 20 60 11 0 20 25 20 56 0 31 10 66 23 79 18 18 17 31 -2 54 -14 17
-19 31 -11 31 8 0 5 12 -7 27 -13 15 -17 33 -9 40 14 15 -17 19 -99 14 -38 -3
-55 6 -55 27 0 18 -9 32 -20 32 -11 0 -20 32 -20 70 0 39 -9 70 -20 70 -11 0
-20 -13 -20 -30z"/>
<path d="M3960 2510 c0 -20 -20 -30 -59 -30 -32 0 -72 -13 -88 -30 -17 -16
-44 -30 -62 -30 -17 0 -31 -13 -31 -30 0 -16 -8 -30 -19 -30 -10 0 -34 -16
-53 -35 -19 -19 -57 -37 -85 -39 -27 -2 -55 -12 -61 -22 -7 -9 -28 -23 -47
-30 -80 -29 -44 -134 45 -134 58 0 80 8 80 30 0 17 18 30 41 30 22 0 45 14 52
30 6 17 33 30 60 30 26 0 53 14 60 30 6 17 28 30 49 30 24 0 38 14 38 39 0 34
11 39 80 32 52 -5 90 2 108 20 32 32 163 55 217 37 52 -16 35 -134 -26 -188
-28 -25 -139 -199 -139 -219 0 -11 -18 -21 -40 -21 -22 0 -40 -13 -40 -30 0
-16 -9 -30 -20 -30 -11 0 -20 -13 -20 -30 0 -17 -18 -30 -40 -30 -22 0 -40 -9
-40 -20 0 -11 -9 -20 -20 -20 -11 0 -20 23 -20 50 0 28 9 50 20 50 11 0 20 32
20 70 0 39 9 70 20 70 11 0 20 41 20 90 0 50 -9 90 -20 90 -11 0 -20 -13 -20
-30 0 -16 -9 -30 -20 -30 -11 0 -20 -13 -20 -30 0 -16 -9 -30 -20 -30 -11 0
-20 -31 -20 -70 0 -38 -9 -70 -20 -70 -11 0 -20 -49 -20 -110 0 -60 -9 -110
-20 -110 -12 0 -20 -87 -20 -220 0 -133 8 -220 20 -220 11 0 20 -13 20 -30 0
-20 20 -30 60 -30 60 0 81 28 35 47 -14 5 13 11 60 11 62 2 85 10 85 32 0 17
18 30 40 30 22 0 40 13 40 30 0 17 9 30 20 30 11 0 20 14 20 30 0 17 9 30 20
30 11 0 20 14 20 30 0 17 9 30 20 30 11 0 20 14 20 30 0 17 9 30 20 30 11 0
20 14 20 30 0 17 9 30 20 30 11 0 20 14 20 30 0 17 14 30 30 30 17 0 30 12 30
28 0 15 19 32 42 38 23 6 36 21 29 33 -7 11 1 21 18 21 17 0 31 14 31 30 0 17
9 30 20 30 11 0 20 14 20 30 0 17 13 30 29 30 16 0 45 27 64 60 20 33 43 60
51 60 9 0 16 14 16 30 0 17 9 30 20 30 11 0 20 18 20 40 0 22 -9 40 -20 40
-11 0 -20 14 -20 30 0 45 -31 36 -68 -20 -18 -27 -26 -50 -19 -50 8 0 -3 -13
-24 -29 -22 -17 -32 -30 -23 -30 8 -1 -11 -27 -44 -59 -33 -32 -55 -63 -49
-68 5 -6 -9 -16 -31 -24 -23 -7 -42 -22 -42 -34 0 -11 -36 -56 -80 -98 -44
-43 -80 -87 -80 -98 0 -11 -9 -20 -20 -20 -11 0 -20 -13 -20 -30 0 -16 -9 -30
-20 -30 -11 0 -20 -13 -20 -30 0 -18 -18 -30 -45 -30 -33 -1 -38 -5 -17 -18
21 -14 18 -21 -15 -31 -24 -8 -43 -27 -43 -42 0 -20 -24 -29 -80 -29 -67 0
-80 7 -80 40 0 22 -9 40 -20 40 -11 0 -20 23 -20 50 0 28 9 50 20 50 11 0 20
14 20 30 0 22 22 30 80 30 58 0 80 8 80 30 0 17 18 30 40 30 22 0 40 13 40 30
0 17 9 30 20 30 11 0 20 14 20 30 0 17 9 30 20 30 11 0 20 14 20 30 0 17 9 30
20 30 11 0 20 14 20 30 0 17 9 30 20 30 11 0 20 14 20 30 0 17 9 30 20 30 11
0 20 14 20 30 0 17 9 30 20 30 11 0 20 14 20 30 0 17 9 30 20 30 11 0 20 14
20 30 0 17 8 30 18 30 57 0 39 172 -20 191 -21 6 -38 25 -38 40 0 23 -40 29
-200 29 -164 0 -200 -5 -200 -30z"/>
<path d="M2440 2380 c-12 -22 -35 -40 -52 -40 -17 0 -25 -9 -18 -20 7 -11 0
-20 -16 -20 -15 0 -49 -18 -74 -40 -25 -22 -54 -40 -63 -40 -9 0 -17 -12 -17
-26 0 -14 -18 -38 -40 -54 -22 -16 -40 -45 -40 -64 0 -20 -9 -36 -20 -36 -11
0 -20 -13 -20 -30 0 -16 -9 -30 -20 -30 -11 0 -20 -28 -20 -61 0 -36 -8 -56
-20 -49 -11 7 -20 -6 -20 -29 0 -22 -9 -41 -20 -41 -11 0 -20 -40 -20 -90 0
-49 9 -90 20 -90 11 0 20 -13 20 -30 0 -23 27 -30 120 -30 93 0 120 7 120 30
0 17 9 30 20 30 11 0 20 14 20 30 0 17 9 30 20 30 11 0 20 14 20 30 0 17 9 30
20 30 11 0 20 26 20 58 0 32 9 62 20 65 11 4 22 32 24 62 3 30 7 55 10 55 19
0 86 -73 86 -94 0 -15 10 -26 21 -26 12 0 16 -9 9 -20 -7 -11 1 -26 19 -32 17
-7 26 -20 20 -29 -5 -9 3 -24 19 -33 16 -9 29 -25 30 -36 2 -81 82 -25 82 59
0 50 -9 91 -20 91 -11 0 -20 14 -20 30 0 17 -18 30 -40 30 -22 0 -40 13 -40
28 0 15 -13 33 -30 39 -46 18 -42 224 5 253 25 16 28 25 10 33 -14 6 -25 41
-25 79 0 79 -63 97 -100 28z"/>
<path d="M3100 2380 c0 -22 -7 -39 -15 -38 -41 7 -65 -5 -65 -31 0 -21 -20
-26 -80 -20 l-80 8 0 -100 c0 -97 1 -99 60 -99 40 0 60 10 60 30 0 38 15 38
51 1 34 -33 42 -331 9 -331 -11 0 -20 -13 -20 -30 0 -16 -9 -30 -20 -30 -11 0
-20 -27 -20 -60 0 -33 -9 -60 -20 -60 -11 0 -20 -27 -20 -60 0 -33 9 -60 20
-60 11 0 20 -13 20 -30 0 -16 9 -30 20 -30 11 0 20 -13 20 -30 0 -17 18 -30
40 -30 22 0 40 13 40 30 0 17 9 30 20 30 11 0 20 14 20 30 0 17 9 30 20 30 11
0 20 14 20 30 0 17 9 30 20 30 11 0 20 53 20 120 0 107 -4 120 -40 120 -32 0
-40 13 -40 70 0 39 9 70 20 70 11 0 20 36 20 80 0 44 9 80 20 80 11 0 20 57
20 130 0 73 -9 130 -20 130 -11 0 -20 14 -20 30 0 17 -18 30 -40 30 -27 0 -40
-13 -40 -40z"/>
<path d="M5269 1795 c-7 -18 -30 -39 -51 -46 -21 -6 -38 -25 -38 -40 0 -16
-18 -29 -40 -29 -22 0 -40 -12 -40 -26 0 -14 -18 -38 -40 -54 -22 -16 -40 -45
-40 -64 0 -20 -9 -36 -20 -36 -11 0 -20 -13 -20 -30 0 -16 9 -30 20 -30 11 0
20 -13 20 -30 0 -16 -9 -30 -20 -30 -11 0 -20 -27 -20 -60 0 -33 9 -60 20 -60
11 0 20 -13 20 -30 0 -23 24 -30 100 -30 98 0 100 -1 100 -60 0 -57 -4 -60
-80 -60 -58 0 -80 -8 -80 -30 0 -16 -9 -30 -20 -30 -11 0 -20 -13 -20 -30 0
-16 -9 -30 -20 -30 -11 0 -20 -13 -20 -30 0 -17 -18 -30 -40 -30 -31 0 -40
-13 -40 -60 0 -33 9 -60 20 -60 11 0 20 -13 20 -30 0 -17 18 -30 40 -30 22 0
40 -13 40 -30 0 -16 9 -30 20 -30 11 0 20 -13 20 -30 0 -16 9 -30 20 -30 11 0
20 -13 20 -30 0 -17 18 -30 40 -30 22 0 40 -13 40 -30 0 -23 24 -30 100 -30
76 0 100 7 100 30 0 17 18 30 40 30 22 0 40 13 40 30 0 17 9 30 20 30 11 0 20
14 20 30 0 17 14 30 30 30 20 0 30 20 30 60 0 51 -8 60 -50 60 -31 0 -50 -11
-50 -30 0 -17 -18 -30 -39 -30 -27 0 -36 -10 -28 -30 7 -19 -1 -30 -21 -30
-18 0 -32 -13 -32 -30 0 -20 -20 -30 -60 -30 -40 0 -60 10 -60 30 0 17 -18 30
-40 30 -22 0 -40 13 -40 30 0 17 -9 30 -20 30 -11 0 -20 14 -20 30 0 27 -24
39 -65 32 -8 -1 -15 11 -15 28 0 16 9 30 20 30 11 0 20 14 20 30 0 17 9 30 20
30 11 0 20 14 20 30 0 22 24 30 92 30 74 0 90 6 81 30 -8 20 1 30 28 30 21 0
39 13 39 30 0 17 8 30 18 30 10 0 21 41 25 90 5 63 0 90 -18 90 -14 0 -25 14
-25 30 0 23 -27 30 -120 30 -93 0 -120 7 -120 30 0 17 -9 30 -20 30 -11 0 -20
14 -20 30 0 17 9 30 20 30 11 0 20 13 20 29 0 15 18 34 40 41 22 7 40 21 40
31 0 11 18 19 40 19 22 0 40 13 40 30 0 17 9 30 20 30 11 0 20 13 20 28 0 16
11 32 24 37 18 6 16 25 -9 76 -26 55 -35 62 -46 34z"/>
</g>
</svg>
