<?xml version="1.0" standalone="no"?>
<!DOCTYPE svg PUBLIC "-//W3C//DTD SVG 20010904//EN"
 "http://www.w3.org/TR/2001/REC-SVG-20010904/DTD/svg10.dtd">
<svg version="1.0" xmlns="http://www.w3.org/2000/svg"
 width="390.000000pt" height="279.000000pt" viewBox="0 0 390.000000 279.000000"
 preserveAspectRatio="xMidYMid meet">
<metadata>
Created by potrace 1.10, written by Peter Selinger 2001-2011
</metadata>
<g transform="translate(0.000000,279.000000) scale(0.100000,-0.100000)"
fill="#000000" stroke="none">
<path d="M318 1950 c-21 -16 -27 -32 -33 -85 -3 -35 -11 -67 -16 -70 -5 -4 -9
-59 -9 -124 0 -105 3 -125 26 -176 33 -77 26 -83 -71 -62 -58 12 -81 14 -100
5 -32 -15 -40 -41 -20 -72 18 -28 88 -76 109 -76 8 0 27 -11 42 -24 25 -21 28
-29 26 -85 -1 -48 -8 -72 -29 -107 -28 -45 -87 -148 -99 -172 -3 -7 0 -19 7
-28 26 -32 129 6 196 72 54 54 77 54 109 -3 17 -31 20 -50 16 -104 -4 -63 -3
-66 31 -102 49 -53 101 -48 132 13 17 33 20 106 5 115 -5 3 -28 37 -50 74 -22
38 -64 94 -95 125 -53 55 -65 79 -46 90 4 3 11 23 14 44 10 59 57 95 139 107
56 9 83 34 74 69 -8 33 -44 42 -105 28 -25 -6 -67 -8 -93 -5 -54 6 -62 24 -28
63 11 13 20 35 20 49 1 28 30 169 50 241 20 71 7 114 -51 171 -42 41 -56 49
-88 49 -23 0 -48 -8 -63 -20z m60 -624 c3 -12 -1 -17 -10 -14 -7 3 -15 13 -16
22 -3 12 1 17 10 14 7 -3 15 -13 16 -22z"/>
<path d="M2129 1588 c-15 -12 -30 -65 -45 -151 -6 -35 -3 -41 38 -80 29 -28
62 -49 98 -60 52 -17 57 -21 83 -77 33 -68 32 -102 -10 -210 -37 -94 -34 -92
-133 -89 -47 2 -91 0 -97 -4 -22 -13 0 -47 52 -82 59 -39 91 -43 159 -20 25 9
56 13 70 9 18 -4 27 -1 36 15 8 15 21 21 48 22 20 0 52 6 71 13 24 9 45 9 70
3 29 -8 44 -6 76 9 22 11 41 27 43 37 5 23 -30 61 -68 77 -24 10 -36 7 -90
-20 -100 -51 -115 -40 -89 62 17 64 -1 118 -60 181 -48 51 -46 66 9 67 36 0
95 23 175 67 62 34 70 42 73 71 4 44 -27 56 -94 36 -59 -18 -240 -54 -271 -54
-32 0 -42 25 -31 77 13 57 8 68 -41 93 -47 23 -52 24 -72 8z"/>
<path d="M2853 1573 c-7 -2 -13 -9 -13 -15 0 -9 -102 -227 -136 -290 -23 -42
-18 -77 11 -84 64 -16 100 6 180 112 l21 26 137 -66 c76 -36 140 -66 143 -66
3 0 48 -25 100 -56 90 -54 97 -56 137 -48 28 6 43 15 45 27 6 28 -63 87 -154
131 -43 22 -86 43 -94 48 -8 4 -22 11 -30 14 -8 3 -46 18 -85 34 -38 15 -89
33 -113 39 -24 7 -45 18 -48 25 -3 7 2 33 11 58 19 59 12 76 -42 99 -47 20
-50 21 -70 12z"/>
<path d="M1269 1550 c-9 -5 -20 -27 -24 -47 -7 -39 -41 -121 -76 -183 -11 -19
-31 -60 -46 -90 -48 -104 -83 -121 -83 -40 0 69 -25 128 -74 173 -43 39 -75
53 -101 43 -25 -9 -17 -42 20 -86 36 -44 51 -80 42 -104 -7 -18 -67 -26 -217
-27 -127 -2 -150 -8 -150 -39 0 -28 49 -42 175 -50 144 -9 179 -19 183 -48 4
-24 -21 -65 -60 -102 -21 -18 -31 -43 -41 -91 -12 -59 -20 -71 -65 -115 -58
-56 -72 -93 -48 -129 24 -36 69 -40 177 -15 132 30 168 41 180 56 15 18 5 31
-40 54 -55 27 -67 73 -33 120 25 36 43 104 51 188 3 40 9 72 13 72 4 -1 33
-12 63 -25 64 -29 95 -31 134 -11 29 15 61 56 61 77 0 7 7 20 16 30 9 10 31
56 50 101 46 114 47 114 139 -6 28 -36 63 -71 78 -77 24 -10 31 -9 52 11 25
24 32 54 16 78 -21 34 -210 215 -255 246 -55 37 -111 52 -137 36z m-372 -845
c9 -25 -26 -55 -64 -55 -40 0 -42 13 -7 45 30 28 62 32 71 10z"/>
<path d="M1667 1524 c-14 -14 -7 -44 28 -117 39 -82 45 -145 20 -193 -8 -16
-15 -38 -15 -50 0 -28 41 -64 73 -64 36 0 77 55 77 104 0 74 35 94 102 60 35
-18 81 -13 117 15 54 42 -33 89 -131 70 -32 -6 -64 -9 -72 -6 -7 3 -24 34 -35
70 -12 35 -32 73 -44 85 -23 21 -106 39 -120 26z"/>
<path d="M1538 1119 c-10 -5 -18 -14 -18 -19 0 -5 -18 -37 -40 -71 -52 -81
-55 -93 -31 -132 31 -51 100 -71 238 -71 64 0 117 5 125 11 7 6 38 21 68 33
107 45 146 93 103 126 -27 20 -51 17 -102 -14 -89 -54 -160 -70 -288 -64 -40
2 -43 4 -43 29 0 19 13 40 46 70 49 47 52 67 10 83 -13 5 -27 14 -31 19 -8 13
-15 13 -37 0z"/>
<path d="M3035 1085 c-44 -19 -158 -33 -235 -28 -49 4 -70 1 -85 -11 -20 -16
-20 -16 9 -40 30 -25 101 -40 141 -30 31 8 44 -18 52 -102 7 -71 -11 -238 -33
-321 -20 -72 -18 -109 8 -143 18 -25 29 -30 62 -30 23 0 52 -1 66 -2 20 -2 29
4 43 34 16 32 18 66 19 255 0 176 -3 227 -16 263 -24 70 -22 76 35 95 45 15
50 20 47 43 -3 24 -8 27 -43 29 -22 1 -54 -4 -70 -12z"/>
<path d="M2331 791 c-7 -12 -25 -22 -49 -26 -83 -14 -104 -38 -57 -69 30 -20
62 -20 95 -1 36 20 129 20 137 -1 3 -9 -4 -49 -17 -89 -13 -40 -20 -80 -17
-88 3 -8 22 -27 41 -42 35 -26 62 -29 92 -8 12 10 74 199 74 229 0 45 -59 77
-175 94 -33 5 -72 12 -87 16 -20 5 -29 1 -37 -15z"/>
<path d="M3640 781 c0 -17 -5 -19 -36 -14 -28 5 -39 2 -46 -10 -5 -10 -17 -17
-26 -17 -31 0 -145 -45 -155 -60 -7 -12 -1 -28 21 -60 35 -54 65 -111 89 -167
14 -36 21 -43 44 -43 14 0 32 7 39 15 7 8 20 15 30 15 10 0 23 7 31 16 9 11
22 14 45 9 49 -9 134 32 134 64 0 14 -9 34 -19 45 -32 35 -71 117 -71 150 0
42 -25 76 -56 76 -17 0 -24 -5 -24 -19z m30 -69 c0 -10 7 -27 15 -39 14 -20
13 -23 -12 -41 -30 -22 -25 -38 17 -47 17 -4 30 -9 30 -12 0 -12 -30 -33 -48
-33 -13 0 -22 -9 -26 -25 -4 -14 -10 -25 -14 -25 -9 1 -42 72 -42 93 0 9 -9
21 -21 27 -26 14 -54 79 -41 92 14 14 43 6 53 -14 5 -10 13 -26 18 -35 11 -25
42 -29 57 -8 11 14 10 22 -3 41 -8 13 -12 31 -9 40 7 19 26 9 26 -14z m-185
-63 c4 -11 17 -24 31 -29 14 -6 26 -20 29 -37 4 -15 11 -36 16 -46 10 -18 2
-67 -11 -67 -18 0 -42 41 -36 63 4 17 0 30 -14 42 -20 18 -50 70 -50 87 0 17
29 7 35 -13z m255 -129 c0 -5 -7 -10 -15 -10 -8 0 -15 5 -15 10 0 6 7 10 15
10 8 0 15 -4 15 -10z"/>
</g>
</svg>
