<?xml version="1.0" standalone="no"?>
<!DOCTYPE svg PUBLIC "-//W3C//DTD SVG 20010904//EN"
 "http://www.w3.org/TR/2001/REC-SVG-20010904/DTD/svg10.dtd">
<svg version="1.0" xmlns="http://www.w3.org/2000/svg"
 width="270.000000pt" height="312.000000pt" viewBox="0 0 270.000000 312.000000"
 preserveAspectRatio="xMidYMid meet">
<metadata>
Created by potrace 1.10, written by Peter Selinger 2001-2011
</metadata>
<g transform="translate(0.000000,312.000000) scale(0.100000,-0.100000)"
fill="#660000" stroke="none">
<path d="M1450 2808 c0 -51 13 -63 66 -61 25 1 49 4 52 8 13 13 -24 60 -48 61
-13 1 -26 7 -28 13 -2 6 -12 11 -23 11 -15 0 -19 -7 -19 -32z"/>
<path d="M1180 2756 c-12 -31 -29 -41 -36 -22 -10 25 -43 19 -50 -8 -3 -13
-15 -26 -26 -29 -28 -8 -20 -48 14 -67 34 -18 56 -4 40 27 -8 15 -7 22 9 31
27 17 39 15 65 -14 20 -21 24 -35 24 -87 -1 -55 -4 -65 -30 -91 -27 -26 -28
-31 -15 -46 13 -14 13 -18 -2 -33 -15 -15 -15 -17 9 -26 32 -12 37 -33 31
-131 -5 -64 -3 -84 11 -105 10 -14 16 -33 14 -42 -2 -12 -9 -10 -31 11 -15 14
-32 26 -37 26 -5 0 -15 12 -22 27 -9 20 -23 30 -48 34 -59 10 -90 27 -90 48 0
10 -7 24 -15 31 -41 34 0 160 52 160 18 0 23 6 23 25 0 23 -2 25 -21 14 -16
-8 -24 -8 -33 1 -8 9 -6 16 12 27 28 19 28 38 0 83 -12 19 -21 48 -19 64 1 25
-1 28 -20 23 -12 -3 -31 -2 -41 4 -12 6 -25 6 -38 -1 -21 -11 -21 -11 2 -39
13 -15 29 -26 35 -23 7 2 24 -6 37 -19 22 -21 23 -25 10 -43 -8 -11 -14 -37
-14 -58 0 -28 -5 -40 -22 -49 -17 -9 -24 -9 -33 5 -20 26 -35 18 -35 -18 0
-35 13 -55 25 -36 12 19 35 10 35 -14 0 -41 -10 -58 -26 -45 -11 9 -22 7 -49
-6 -40 -18 -90 -13 -99 11 -3 8 -12 14 -21 14 -11 0 -15 11 -15 40 0 32 6 47
30 70 20 20 30 39 30 60 0 37 -23 40 -58 8 -22 -21 -24 -22 -33 -5 -12 20 -39
23 -39 3 0 -28 13 -48 37 -57 20 -7 22 -12 13 -28 -11 -22 -13 -64 -4 -110 5
-23 11 -30 22 -26 8 3 26 -4 39 -17 22 -20 26 -21 60 -9 21 8 44 20 51 28 21
20 46 12 50 -17 2 -14 10 -29 18 -33 32 -18 14 -34 -41 -36 -43 -1 -55 2 -55
14 0 9 -9 15 -24 15 -35 0 -42 -18 -12 -32 14 -6 26 -15 26 -20 0 -4 29 -8 64
-8 68 0 86 -9 61 -30 -8 -7 -15 -23 -15 -36 0 -13 -7 -27 -16 -32 -22 -12 -14
-46 12 -50 30 -4 51 24 36 48 -10 16 -8 24 12 45 26 28 67 33 90 10 8 -8 23
-15 33 -15 16 0 63 -40 63 -53 0 -3 11 -18 24 -32 44 -47 66 -102 66 -160 0
-31 -4 -55 -10 -55 -6 0 -24 14 -40 30 -35 36 -55 39 -46 8 3 -13 6 -26 6 -30
0 -5 11 -8 25 -8 14 0 35 -10 46 -21 20 -20 21 -29 16 -106 -3 -47 -10 -90
-16 -96 -6 -6 -11 -26 -11 -44 0 -18 -4 -33 -9 -33 -5 0 -13 -9 -16 -20 -14
-44 -95 -6 -95 45 0 11 -7 31 -16 43 -10 15 -14 32 -9 49 3 15 0 34 -9 48 -21
32 -32 105 -17 105 18 0 96 78 87 87 -4 4 -16 -3 -26 -17 -13 -18 -28 -24 -54
-24 -29 0 -36 -4 -36 -19 0 -27 -21 -16 -48 24 -13 19 -32 37 -43 41 -10 4
-19 12 -19 18 0 5 -9 10 -20 10 -11 0 -20 4 -20 9 0 4 -18 21 -40 36 -35 25
-39 30 -27 44 8 9 16 23 19 31 8 22 -9 60 -27 60 -17 0 -20 -16 -5 -25 15 -9
12 -25 -5 -25 -8 0 -15 -8 -15 -19 0 -10 -3 -33 -6 -50 -5 -24 -3 -31 9 -31 8
0 20 -6 26 -14 6 -7 25 -16 41 -20 21 -4 30 -11 30 -26 0 -13 7 -20 20 -20 11
0 20 -7 20 -15 0 -8 9 -19 20 -25 20 -11 20 -11 -2 -44 -23 -35 -69 -66 -98
-66 -21 0 -80 31 -80 42 0 4 -16 15 -35 24 -19 9 -35 22 -35 29 0 30 -97 30
-126 0 -8 -7 -19 -15 -26 -17 -14 -5 -3 -38 13 -38 6 0 13 8 16 18 3 14 15 18
54 19 45 1 54 -3 86 -36 l35 -36 -66 -3 c-53 -2 -68 -7 -76 -22 -18 -34 -61
-25 -94 20 -33 45 -56 52 -56 18 0 -22 9 -32 69 -76 l24 -18 -25 -27 c-31 -33
-68 -36 -68 -6 0 15 -5 20 -22 17 -18 -2 -23 -10 -23 -33 0 -27 4 -30 44 -37
42 -7 46 -6 78 28 l33 35 10 -25 c11 -29 31 -35 28 -8 -4 48 3 82 16 82 8 0
16 -10 18 -22 4 -32 28 -35 28 -4 0 32 21 38 110 34 65 -3 65 -3 65 -33 0 -23
4 -30 20 -30 17 0 20 7 20 45 0 35 3 44 15 41 29 -7 65 -11 53 -5 -18 8 -16
33 2 40 8 4 15 12 15 20 0 20 38 17 48 -3 5 -10 12 -35 15 -56 6 -41 -11 -59
-37 -38 -15 13 -26 5 -26 -20 0 -13 9 -19 37 -21 33 -3 39 -7 48 -38 5 -20 20
-50 33 -67 28 -39 28 -43 -1 -43 -13 0 -28 -5 -34 -11 -23 -23 -113 31 -113
66 0 18 -36 20 -46 4 -4 -7 3 -19 15 -28 30 -23 18 -51 -20 -51 -22 0 -34 -8
-51 -35 -20 -29 -29 -35 -60 -35 -39 0 -49 15 -26 38 9 9 9 12 0 12 -7 0 -12
-4 -12 -10 0 -31 -69 15 -70 46 0 10 -21 21 -72 38 -10 3 -18 13 -18 22 0 12
-6 15 -22 10 -13 -3 -26 -6 -30 -6 -9 0 -11 -50 -3 -50 3 0 14 6 25 12 17 11
22 9 36 -10 19 -28 60 -69 99 -98 27 -21 28 -24 15 -53 -16 -41 -4 -56 33 -42
15 6 27 17 27 26 0 8 7 15 15 15 8 0 15 -9 15 -20 0 -12 7 -20 16 -20 12 0 15
6 11 21 -9 32 9 70 29 62 12 -4 15 -14 11 -42 -5 -30 -2 -39 19 -54 28 -21 34
-4 9 29 -36 47 6 99 90 111 48 6 48 7 49 -51 1 -33 25 -52 52 -42 18 7 18 8
-4 25 -23 17 -23 19 -8 54 13 31 20 37 46 37 20 0 33 -6 37 -17 3 -10 13 -26
21 -35 7 -9 14 -33 14 -52 0 -19 6 -40 14 -47 19 -16 18 -155 -1 -189 -8 -14
-14 -37 -15 -51 0 -15 -7 -32 -15 -39 -8 -7 -15 -18 -15 -25 0 -17 -57 -65
-92 -77 -29 -10 -37 -33 -15 -40 6 -2 41 -2 77 0 36 2 122 4 193 4 138 0 149
5 102 49 -13 13 -25 34 -25 45 0 12 -7 24 -15 28 -8 3 -15 16 -15 29 0 14 -7
44 -15 67 -20 57 -18 133 5 200 16 47 22 55 47 58 15 2 53 23 83 46 94 73 129
83 169 45 17 -16 20 -24 10 -35 -14 -17 -11 -17 30 -3 33 12 40 26 16 35 -8 4
-15 12 -15 20 0 8 -7 14 -15 14 -8 0 -15 7 -15 15 0 8 7 15 15 15 8 0 15 -7
15 -15 0 -8 7 -15 16 -15 11 0 15 8 12 28 l-3 27 88 0 c59 0 92 -4 99 -12 16
-20 32 -16 63 17 36 37 72 40 85 6 11 -29 42 -48 64 -40 23 9 20 34 -4 34 -11
0 -20 7 -20 15 0 8 5 15 10 15 6 0 10 7 10 15 0 20 -17 19 -29 -2 -7 -14 -12
-15 -22 -6 -15 15 -5 41 18 50 10 3 26 13 36 22 17 14 19 14 28 -2 12 -21 29
-22 29 -2 0 8 -4 15 -9 15 -13 0 -21 41 -12 59 11 18 -7 61 -25 61 -15 0 -29
-43 -19 -60 11 -18 -5 -50 -25 -50 -11 0 -24 -9 -30 -20 -8 -15 -17 -19 -31
-15 -13 4 -21 1 -26 -11 -11 -28 -41 -54 -64 -54 -31 0 -20 30 20 57 35 24 35
23 -16 39 -20 5 -15 23 12 48 21 20 23 25 11 35 -11 9 -18 8 -30 -5 -13 -13
-19 -14 -31 -4 -12 10 -15 9 -15 -4 0 -9 4 -16 9 -16 12 0 24 -66 16 -90 -6
-20 -83 -60 -116 -60 -10 0 -25 10 -33 22 -14 19 -18 20 -40 8 -16 -8 -24 -20
-23 -34 2 -17 -4 -22 -28 -24 -16 -2 -32 -7 -35 -11 -3 -4 -27 -12 -55 -19
-48 -11 -51 -10 -72 14 -29 31 -30 78 -3 101 27 23 25 42 -5 53 -35 13 -34 62
1 95 33 31 10 35 -35 7 -27 -16 -29 -20 -15 -33 12 -13 13 -33 8 -113 -6 -87
-9 -99 -31 -113 -12 -8 -23 -22 -23 -29 0 -20 13 -17 28 6 7 11 21 20 32 20
15 0 20 -7 20 -28 0 -38 -38 -72 -89 -79 -70 -9 -70 -8 -64 215 4 127 10 200
17 204 6 4 56 8 111 8 94 0 102 -2 128 -25 28 -27 34 -54 16 -72 -8 -8 -8 -13
0 -17 17 -11 32 4 26 25 -8 24 12 25 44 0 l24 -18 -22 -22 c-29 -29 -23 -45
17 -49 36 -4 43 13 15 34 -24 18 -4 17 40 -1 29 -12 37 -22 43 -51 l7 -36 21
21 c20 21 20 21 2 56 -13 24 -26 35 -42 35 -12 0 -29 7 -38 15 -8 8 -18 15
-23 15 -4 0 -18 11 -31 24 l-22 24 26 21 c31 25 64 28 64 6 0 -12 10 -14 45
-11 24 3 49 7 54 10 5 4 21 1 35 -5 21 -10 29 -9 44 4 10 10 23 17 28 17 13 0
40 69 36 89 -6 29 -20 34 -32 12 -6 -12 -8 -31 -4 -43 6 -19 3 -20 -25 -15
-29 6 -30 5 -19 -13 14 -22 12 -25 -21 -35 -23 -7 -24 -6 -18 29 6 39 -6 54
-28 36 -9 -8 -13 -21 -9 -35 4 -18 1 -25 -16 -30 -24 -8 -50 10 -50 34 0 10
16 32 35 51 19 19 35 40 35 47 0 7 9 17 19 23 11 5 27 28 37 50 18 40 28 48
38 31 3 -5 23 -12 43 -16 21 -4 50 -13 65 -21 33 -17 71 -3 66 24 -4 20 -79
32 -116 20 -19 -7 -25 -4 -29 12 -3 13 -14 20 -29 20 -30 0 -30 9 1 42 14 15
25 32 25 38 0 5 7 10 15 10 9 0 18 7 21 15 4 8 17 15 29 15 21 0 24 -5 23 -38
0 -49 17 -82 42 -82 15 0 20 7 20 29 0 16 -6 31 -15 35 -9 3 -15 18 -15 34 0
16 -7 35 -15 42 -11 9 -14 22 -10 42 7 31 -15 49 -38 29 -10 -7 -17 -7 -25 1
-15 15 -42 2 -42 -21 0 -11 10 -27 22 -35 l22 -16 -22 -20 c-26 -24 -42 -26
-42 -4 0 9 -13 21 -30 27 -16 6 -30 16 -30 23 0 6 -9 19 -20 29 -16 14 -23 16
-33 6 -15 -15 2 -44 28 -50 24 -4 54 -41 55 -66 0 -11 -7 -33 -15 -49 -8 -15
-15 -37 -15 -48 0 -11 -6 -32 -14 -46 -8 -15 -17 -35 -20 -45 -8 -25 -26 -12
-26 18 0 13 -8 28 -17 34 -17 9 -17 11 2 25 16 12 18 17 7 27 -10 11 -15 10
-28 -2 -13 -14 -13 -25 -3 -82 12 -65 12 -68 -11 -92 -28 -30 -37 -31 -45 -5
-3 11 -11 20 -16 20 -13 0 -11 -34 2 -47 16 -16 2 -33 -26 -33 -13 0 -27 -4
-30 -10 -12 -19 -45 -11 -45 11 0 17 -4 19 -22 12 -23 -8 -38 -8 -163 -2 -60
4 -70 7 -73 24 -2 11 -11 25 -19 32 -8 6 -12 16 -9 22 4 6 1 20 -6 31 -12 19
-9 25 22 51 69 60 173 89 186 54 4 -8 16 -15 29 -15 16 0 25 -7 29 -25 6 -25
26 -35 26 -14 0 8 13 9 38 5 49 -7 84 13 63 38 -17 20 -49 21 -72 0 -16 -14
-18 -14 -29 5 -6 12 -17 21 -25 21 -15 0 -45 27 -45 41 0 5 5 9 10 9 6 0 23 9
39 21 38 28 87 23 83 -8 -2 -16 2 -23 12 -23 9 0 16 5 16 10 0 6 9 10 20 10
13 0 20 -7 20 -20 0 -11 5 -20 10 -20 17 0 11 20 -16 55 l-26 34 26 7 c32 8
34 29 4 45 -19 10 -25 8 -45 -16 -16 -18 -29 -25 -41 -20 -15 6 -15 8 -2 18
18 14 36 42 51 77 10 24 11 24 25 6 8 -11 14 -23 14 -28 0 -4 9 -8 20 -8 17 0
18 3 8 25 -6 14 -15 25 -20 25 -4 0 -8 5 -8 11 0 5 8 9 18 7 39 -6 59 35 22
45 -13 3 -20 14 -20 30 0 14 -4 28 -9 32 -13 7 -26 -16 -23 -40 2 -11 -11 -36
-28 -55 -16 -18 -30 -39 -30 -46 0 -7 -14 -23 -31 -36 -17 -13 -52 -46 -79
-73 -45 -47 -130 -92 -144 -78 -3 4 -6 19 -6 34 0 16 -9 37 -21 48 -20 18 -29
64 -16 77 3 3 24 8 46 11 31 4 41 10 41 24 0 10 -9 23 -20 29 -26 14 -76 -22
-105 -76 l-19 -36 27 -22 c35 -28 37 -83 5 -126 -28 -38 -56 -39 -64 -2 -3 15
-12 46 -20 70 -8 23 -14 54 -14 68 0 27 27 74 42 74 13 0 78 68 78 81 0 14
-30 11 -30 -3 0 -13 -61 -48 -81 -48 -6 0 -9 10 -8 23 2 12 -2 32 -9 44 -17
31 -15 46 13 99 30 56 30 63 8 79 -17 12 -17 14 1 34 11 12 23 21 27 21 4 0
24 10 44 21 l37 22 -29 23 c-38 32 -85 31 -109 -1 -10 -14 -26 -25 -34 -25
-12 1 -12 3 3 14 21 17 23 66 2 66 -9 0 -20 -11 -25 -24z"/>
<path d="M1427 2688 c-9 -26 12 -58 38 -58 30 0 32 16 6 48 -21 25 -37 28 -44
10z"/>
<path d="M710 2650 c0 -23 45 -39 62 -22 18 18 1 42 -32 42 -23 0 -30 -4 -30
-20z"/>
<path d="M1310 2635 c-11 -20 -11 -28 -2 -37 10 -10 18 -6 38 14 15 14 23 31
20 37 -12 19 -42 12 -56 -14z"/>
<path d="M1700 2650 c0 -5 -6 -10 -14 -10 -8 0 -17 -4 -21 -10 -10 -17 6 -58
26 -63 10 -3 19 -14 19 -24 0 -21 18 -43 36 -43 6 0 15 12 19 27 5 21 2 32
-15 45 -14 11 -20 24 -16 34 3 8 1 24 -4 35 -11 20 -30 26 -30 9z"/>
<path d="M820 2612 c0 -25 19 -42 47 -42 25 0 29 11 13 41 -14 25 -60 26 -60
1z"/>
<path d="M1546 2615 c-3 -10 -19 -15 -45 -15 -22 0 -42 -4 -45 -8 -11 -18 7
-52 26 -52 16 0 19 -5 14 -24 -7 -28 9 -43 28 -27 18 15 28 -21 16 -53 -7 -19
-14 -22 -40 -18 -25 3 -31 1 -28 -9 3 -8 18 -15 34 -15 41 -2 72 -14 78 -30 7
-18 36 -18 36 0 0 8 -9 18 -20 21 -27 8 -27 70 0 105 17 22 22 23 40 12 27
-17 43 -7 30 19 -13 23 -62 26 -80 4 -14 -17 -40 -20 -40 -5 0 20 45 54 67 52
38 -5 30 32 -10 46 -43 16 -54 15 -61 -3z"/>
<path d="M1161 2560 c6 -16 13 -30 15 -30 2 0 4 14 4 30 0 20 -5 30 -14 30
-12 0 -13 -6 -5 -30z"/>
<path d="M1088 2573 c-21 -5 -25 -43 -5 -43 22 0 51 26 43 38 -7 12 -9 13 -38
5z"/>
<path d="M1367 2573 c-15 -15 -7 -55 13 -60 25 -7 26 -29 3 -38 -12 -4 -23 1
-32 14 -16 25 -41 28 -41 5 0 -8 13 -20 29 -25 16 -6 31 -19 34 -30 3 -13 14
-19 31 -19 24 0 26 4 26 40 0 28 -5 43 -16 47 -8 3 -14 15 -13 27 2 36 -1 46
-14 46 -8 0 -17 -3 -20 -7z"/>
<path d="M1802 2538 c-7 -7 -12 -22 -12 -35 0 -18 6 -23 25 -23 26 0 50 32 41
56 -7 17 -38 18 -54 2z"/>
<path d="M832 2516 c-8 -19 -8 -25 2 -29 19 -8 35 11 29 34 -7 26 -18 24 -31
-5z"/>
<path d="M882 2523 c2 -10 10 -18 18 -18 8 0 16 8 18 18 2 12 -3 17 -18 17
-15 0 -20 -5 -18 -17z"/>
<path d="M1997 2483 c-11 -10 -8 -61 4 -68 19 -12 59 4 59 24 0 34 -44 64 -63
44z"/>
<path d="M610 2452 c0 -37 21 -65 46 -60 42 8 23 88 -21 88 -21 0 -25 -5 -25
-28z"/>
<path d="M1652 2428 c-14 -14 -16 -48 -2 -48 10 0 30 32 30 49 0 14 -13 14
-28 -1z"/>
<path d="M1883 2418 c-18 -24 -23 -48 -13 -73 11 -29 22 -31 45 -9 18 18 13
59 -9 82 -10 11 -15 11 -23 0z"/>
<path d="M800 2397 c0 -16 9 -28 25 -35 32 -15 41 1 18 33 -23 31 -43 32 -43
2z"/>
<path d="M597 2354 c-3 -4 1 -17 10 -30 12 -19 24 -24 58 -24 26 0 45 -5 48
-12 2 -7 8 -10 12 -6 11 10 -14 38 -34 38 -9 0 -22 9 -29 20 -11 19 -51 27
-65 14z"/>
<path d="M1160 2339 c0 -24 23 -21 28 4 2 10 -3 17 -12 17 -10 0 -16 -9 -16
-21z"/>
<path d="M534 2339 c-5 -8 -9 -41 -9 -74 0 -57 -1 -60 -25 -60 -20 0 -26 -6
-28 -28 -3 -28 -3 -29 40 -25 37 3 43 0 46 -17 2 -14 -7 -26 -28 -38 -20 -12
-30 -26 -30 -43 0 -29 20 -31 61 -7 23 14 29 23 24 40 -4 16 0 23 15 28 31 10
80 -4 80 -23 0 -8 7 -24 16 -34 18 -19 21 -16 -32 -33 -13 -4 -14 -8 -4 -20
18 -22 47 -18 54 8 6 21 7 21 20 5 14 -19 46 -25 46 -9 0 5 -7 14 -15 21 -8 7
-15 19 -15 26 0 8 -9 14 -20 14 -13 0 -20 7 -20 18 0 11 -7 33 -16 51 -12 24
-21 30 -33 26 -38 -16 -52 -16 -75 -2 -22 15 -24 22 -22 88 2 74 -12 115 -30
88z"/>
<path d="M1525 2319 c-10 -15 3 -25 16 -12 7 7 7 13 1 17 -6 3 -14 1 -17 -5z"/>
<path d="M1065 2276 c-8 -16 -12 -32 -9 -35 4 -3 9 0 11 7 6 14 49 16 58 2 13
-20 25 -9 25 23 0 31 -2 33 -35 33 -29 0 -38 -5 -50 -30z"/>
<path d="M1430 2264 c0 -33 33 -30 38 4 3 17 -2 22 -17 22 -16 0 -21 -6 -21
-26z"/>
<path d="M625 2261 c-10 -17 15 -53 33 -49 26 5 22 52 -5 56 -11 2 -24 -2 -28
-7z"/>
<path d="M720 2220 c0 -5 5 -10 10 -10 6 0 10 -7 10 -15 0 -8 -5 -15 -10 -15
-6 0 -13 7 -16 15 -8 19 -34 20 -34 1 0 -7 11 -21 24 -29 21 -14 25 -14 39 0
14 14 18 14 32 3 15 -12 17 -11 13 10 -2 17 -10 26 -25 28 -13 2 -23 8 -23 13
0 5 -4 9 -10 9 -5 0 -10 -4 -10 -10z"/>
<path d="M1815 2189 c-9 -28 9 -46 30 -29 8 7 15 21 15 31 0 26 -37 25 -45 -2z"/>
<path d="M835 2187 c-4 -10 -3 -23 3 -29 14 -14 21 3 12 27 -7 19 -8 19 -15 2z"/>
<path d="M1980 2154 c0 -9 5 -14 12 -12 18 6 21 28 4 28 -9 0 -16 -7 -16 -16z"/>
<path d="M1066 2128 c-18 -25 -13 -38 15 -38 14 0 19 7 19 30 0 35 -13 39 -34
8z"/>
<path d="M437 2053 c-10 -9 -9 -51 2 -57 4 -3 6 -16 4 -29 -3 -14 2 -29 11
-36 9 -8 16 -20 16 -27 0 -8 6 -14 14 -14 7 0 16 -9 19 -20 4 -14 10 -18 23
-13 16 6 16 8 -4 21 -12 8 -22 25 -22 38 0 13 -4 24 -9 24 -15 0 -24 40 -12
54 22 26 -19 83 -42 59z"/>
<path d="M1102 2049 c2 -6 8 -10 13 -10 5 0 11 4 13 10 2 6 -4 11 -13 11 -9 0
-15 -5 -13 -11z"/>
<path d="M1398 2053 c-15 -4 -15 -8 -5 -24 15 -25 37 -25 37 0 0 23 -8 29 -32
24z"/>
<path d="M1040 2031 c-8 -16 -6 -22 10 -31 14 -7 20 -21 20 -45 0 -46 10 -71
21 -53 14 22 10 85 -6 98 -8 7 -15 18 -15 26 0 22 -19 25 -30 5z"/>
<path d="M1524 2015 c-10 -40 0 -52 43 -51 48 2 48 17 1 50 l-38 25 -6 -24z"/>
<path d="M585 2020 c-10 -16 4 -50 21 -50 11 0 14 8 12 27 -3 28 -22 41 -33
23z"/>
<path d="M887 2024 c-9 -10 2 -24 19 -24 8 0 14 7 14 15 0 15 -21 21 -33 9z"/>
<path d="M1447 1984 c-12 -32 -14 -51 -7 -63 8 -13 9 -11 10 12 0 17 9 36 22
46 13 11 19 24 15 34 -11 28 -22 19 -40 -29z"/>
<path d="M1985 2019 c-8 -11 25 -40 37 -33 5 3 8 14 8 25 0 21 -34 27 -45 8z"/>
<path d="M1647 1994 c-14 -14 -6 -24 19 -24 16 0 24 5 22 13 -5 14 -31 21 -41
11z"/>
<path d="M714 1966 c-8 -22 3 -33 18 -18 9 9 9 15 0 24 -9 9 -13 7 -18 -6z"/>
<path d="M2148 1955 c-20 -44 11 -71 52 -45 12 7 12 12 1 34 -20 36 -40 40
-53 11z"/>
<path d="M1002 1950 c-18 -29 -15 -42 11 -38 16 2 22 10 22 27 0 31 -17 37
-33 11z"/>
<path d="M2051 1949 c-11 -18 -11 -23 1 -30 7 -5 16 -9 20 -9 8 0 38 41 38 52
0 17 -46 7 -59 -13z"/>
<path d="M530 1930 c0 -13 5 -20 13 -17 6 2 12 10 12 17 0 7 -6 15 -12 18 -8
2 -13 -5 -13 -18z"/>
<path d="M590 1905 c0 -16 6 -25 15 -25 9 0 15 9 15 25 0 16 -6 25 -15 25 -9
0 -15 -9 -15 -25z"/>
<path d="M650 1894 c0 -9 7 -14 17 -12 25 5 28 28 4 28 -12 0 -21 -6 -21 -16z"/>
<path d="M746 1901 c-6 -10 27 -34 62 -45 25 -8 32 11 7 20 -8 4 -15 12 -15
20 0 15 -45 20 -54 5z"/>
<path d="M858 1879 c-25 -14 -22 -38 6 -49 13 -5 26 -15 29 -22 2 -7 8 -10 12
-6 9 9 -12 88 -23 88 -4 0 -15 -5 -24 -11z"/>
<path d="M435 1870 c-11 -18 6 -50 26 -50 21 0 22 3 13 38 -7 23 -28 30 -39
12z"/>
<path d="M2030 1855 c0 -32 32 -50 62 -34 l22 12 -28 23 c-35 31 -56 31 -56
-1z"/>
<path d="M1152 1819 c-12 -18 -11 -20 5 -17 10 2 19 11 21 21 5 23 -10 21 -26
-4z"/>
<path d="M1858 1800 c-7 -24 -3 -38 8 -28 3 4 4 17 2 30 l-3 23 -7 -25z"/>
<path d="M500 1800 c0 -5 7 -10 15 -10 8 0 15 5 15 10 0 6 -7 10 -15 10 -8 0
-15 -4 -15 -10z"/>
<path d="M1794 1764 c41 -15 53 -13 41 5 -3 6 -23 11 -43 10 l-37 0 39 -15z"/>
<path d="M2003 1762 c-8 -5 -10 -21 -6 -45 7 -44 16 -53 33 -32 7 8 21 15 31
15 26 0 24 6 -11 40 -35 34 -31 32 -47 22z"/>
<path d="M1210 1741 c0 -5 7 -14 15 -21 13 -10 15 -9 15 9 0 12 -6 21 -15 21
-8 0 -15 -4 -15 -9z"/>
<path d="M414 1726 c-9 -24 12 -44 28 -28 10 10 8 16 -5 29 -15 15 -17 15 -23
-1z"/>
<path d="M1400 1709 c0 -24 23 -21 28 4 2 10 -3 17 -12 17 -10 0 -16 -9 -16
-21z"/>
<path d="M1525 1719 c-8 -11 22 -38 43 -39 13 0 15 10 6 34 -7 18 -39 21 -49
5z"/>
<path d="M1600 1686 c0 -11 9 -16 26 -16 31 0 28 23 -4 28 -15 2 -22 -2 -22
-12z"/>
<path d="M1140 1651 c0 -17 3 -18 30 -8 26 10 28 13 13 19 -31 12 -43 9 -43
-11z"/>
<path d="M807 1634 c-4 -4 -7 -18 -7 -31 0 -12 -4 -23 -10 -23 -5 0 -10 -9
-10 -20 0 -45 51 -7 53 39 2 32 -11 49 -26 35z"/>
<path d="M694 1615 c16 -12 17 -18 8 -27 -18 -18 -14 -38 8 -38 18 0 40 26 40
49 0 6 -9 11 -20 11 -11 0 -20 5 -20 10 0 6 -8 10 -17 10 -16 -1 -16 -2 1 -15z"/>
<path d="M1542 1610 c-16 -26 -16 -27 11 -33 12 -2 31 -8 42 -12 19 -8 19 -8
3 12 -10 11 -18 27 -18 36 0 23 -22 21 -38 -3z"/>
<path d="M1377 1574 c-11 -11 3 -24 24 -24 12 0 19 5 17 13 -5 14 -31 21 -41
11z"/>
<path d="M464 1515 c-12 -31 23 -48 45 -21 10 12 8 17 -8 25 -26 14 -31 14
-37 -4z"/>
<path d="M2030 1505 c0 -8 7 -15 16 -15 12 0 14 -7 9 -30 -6 -26 -4 -30 14
-30 16 0 21 6 21 25 0 14 -4 25 -9 25 -5 0 -11 9 -14 20 -6 23 -37 27 -37 5z"/>
<path d="M1816 1494 c-9 -25 -7 -34 9 -34 12 0 35 28 35 44 0 14 -38 5 -44
-10z"/>
<path d="M1903 1490 c-15 -6 -23 -18 -23 -35 0 -30 13 -32 47 -5 19 15 30 17
43 10 20 -11 39 5 24 20 -15 14 -68 19 -91 10z"/>
<path d="M517 1464 c-16 -16 -6 -34 19 -34 19 0 25 5 22 17 -3 19 -29 29 -41
17z"/>
<path d="M1741 1421 c-12 -8 -12 -12 -2 -25 9 -11 10 -16 2 -16 -6 0 -11 5
-11 10 0 6 -11 10 -25 10 -34 0 -31 -10 12 -42 43 -33 73 -36 80 -7 4 14 11
18 22 13 38 -16 61 -16 61 -1 0 19 -26 47 -44 47 -6 0 -17 -5 -23 -11 -8 -8
-14 -5 -22 10 -13 23 -27 26 -50 12z"/>
<path d="M1927 1412 c-23 -26 -21 -40 8 -54 31 -14 36 -9 38 33 2 39 -20 50
-46 21z"/>
<path d="M1520 1384 c0 -9 5 -14 12 -12 18 6 21 28 4 28 -9 0 -16 -7 -16 -16z"/>
<path d="M630 1372 c0 -11 7 -23 16 -26 20 -8 21 -7 26 19 2 14 -3 21 -19 23
-17 3 -23 -2 -23 -16z"/>
<path d="M965 1373 l-28 -15 23 -18 c19 -14 20 -18 6 -23 -25 -10 -20 -37 8
-37 18 0 25 7 30 28 3 15 8 37 12 48 8 28 -14 36 -51 17z"/>
<path d="M1460 1355 c0 -8 6 -15 13 -15 15 -1 51 -49 43 -58 -4 -3 -16 -1 -26
6 -16 10 -20 10 -20 -2 0 -7 7 -19 15 -26 13 -10 19 -10 33 4 23 20 58 21 66
0 9 -24 50 -14 54 14 4 27 22 30 22 3 0 -10 7 -24 15 -31 22 -18 39 1 31 34
-5 19 -13 26 -31 26 -25 0 -33 14 -15 25 13 8 13 35 -1 35 -6 0 -13 -9 -16
-20 -3 -11 -9 -20 -14 -20 -5 0 -9 -9 -9 -19 0 -10 -7 -22 -15 -25 -20 -7 -37
33 -22 52 7 9 7 16 -2 25 -10 9 -14 8 -22 -5 -12 -22 -35 -23 -43 -3 -3 8 -17
15 -31 15 -16 0 -25 -6 -25 -15z"/>
<path d="M1130 1334 c0 -31 23 -28 28 4 2 15 -2 22 -12 22 -11 0 -16 -9 -16
-26z"/>
<path d="M770 1275 c0 -16 6 -25 15 -25 9 0 15 9 15 25 0 16 -6 25 -15 25 -9
0 -15 -9 -15 -25z"/>
<path d="M1006 1281 c-9 -14 5 -41 20 -41 20 0 30 30 13 41 -18 11 -26 11 -33
0z"/>
<path d="M1411 1221 c-21 -14 -5 -41 24 -41 22 0 26 4 23 22 -3 25 -25 33 -47
19z"/>
<path d="M216 826 c-40 -40 -36 -101 11 -163 20 -26 40 -49 45 -51 4 -2 8 -9
8 -16 0 -7 9 -21 20 -31 25 -22 27 -86 4 -109 -14 -14 -18 -14 -39 2 -14 9
-27 25 -30 35 -7 19 -30 23 -40 6 -10 -16 4 -59 19 -59 7 0 25 -9 39 -20 33
-26 47 -25 78 8 55 57 48 124 -22 208 -27 32 -54 64 -59 71 -6 7 -10 30 -10
53 0 35 3 40 23 40 28 0 41 -9 56 -37 15 -30 29 -29 37 2 8 33 -28 71 -78 80
-31 6 -41 3 -62 -19z"/>
<path d="M2195 817 c-101 -73 -140 -166 -116 -279 12 -52 51 -108 77 -108 6 0
14 -7 18 -15 7 -20 109 -21 128 -1 8 8 23 15 33 17 10 2 23 13 29 24 6 11 13
22 17 25 3 3 15 24 27 48 17 32 22 60 22 115 -1 80 -20 123 -76 171 -41 34
-114 35 -159 3z m134 -44 c11 -10 26 -35 35 -57 17 -41 22 -141 7 -150 -5 -3
-12 -18 -16 -33 -3 -16 -18 -40 -33 -55 -21 -23 -34 -28 -76 -28 -54 0 -96 27
-96 61 0 10 -4 21 -10 24 -17 10 -12 121 8 162 27 60 69 93 120 93 27 0 50 -6
61 -17z"/>
<path d="M432 608 l3 -203 24 -3 c31 -5 48 12 32 32 -9 10 -12 65 -10 193 l2
178 -27 3 -26 3 2 -203z"/>
<path d="M870 771 c-11 -8 -12 -14 -3 -33 13 -26 23 -231 13 -248 -4 -7 -38
23 -86 76 -43 48 -95 104 -114 123 -20 20 -43 47 -52 60 -10 14 -23 21 -31 18
-12 -4 -14 -29 -10 -139 3 -73 1 -157 -5 -185 -10 -56 0 -79 31 -67 13 5 14
25 10 145 -4 89 -2 139 4 139 6 0 33 -26 61 -57 27 -32 82 -91 120 -131 39
-40 74 -81 77 -92 8 -25 22 -26 32 -2 4 9 8 103 8 207 0 182 -1 190 -20 193
-11 1 -27 -2 -35 -7z"/>
<path d="M1124 753 c-4 -15 -13 -38 -20 -52 -8 -14 -14 -34 -14 -43 0 -10 -4
-18 -9 -18 -5 0 -12 -12 -15 -27 -4 -16 -13 -41 -20 -58 -17 -37 -32 -72 -46
-105 -6 -14 -19 -38 -29 -55 -26 -41 -26 -45 9 -45 25 0 32 6 50 44 11 25 20
52 20 60 0 11 17 15 78 18 42 2 85 -1 94 -7 10 -5 21 -26 24 -45 8 -44 40 -80
71 -80 30 0 42 29 20 45 -10 7 -17 15 -17 19 0 4 -20 49 -45 100 -25 52 -45
98 -45 102 -1 5 -9 27 -20 49 -11 22 -19 46 -20 53 0 6 -4 12 -9 12 -5 0 -11
14 -14 30 -8 38 -34 39 -43 3z m36 -101 c0 -19 32 -107 43 -118 4 -4 7 -15 7
-24 0 -14 -10 -16 -62 -14 -56 2 -63 5 -66 24 -2 12 1 27 7 33 6 6 11 17 11
25 0 7 9 33 20 58 20 43 40 51 40 16z"/>
<path d="M1453 773 c-37 -3 -53 -8 -53 -18 0 -8 5 -17 10 -20 15 -9 13 -348
-2 -363 -6 -6 -10 -14 -7 -16 2 -3 43 -8 91 -12 79 -6 90 -5 123 16 38 23 85
88 85 116 0 9 -9 32 -21 50 -16 26 -27 34 -50 34 -34 0 -36 -11 -8 -49 14 -20
18 -35 14 -54 -10 -39 -60 -77 -100 -77 -47 0 -65 29 -65 106 0 70 4 74 75 74
38 0 47 4 73 38 50 63 53 75 34 112 -20 39 -74 71 -117 68 -16 -1 -54 -3 -82
-5z m126 -62 c28 -38 26 -60 -5 -94 -21 -23 -33 -28 -62 -25 l-37 3 -3 64 c-3
71 3 81 55 81 24 0 37 -7 52 -29z"/>
<path d="M1733 764 c-3 -9 -1 -25 5 -35 15 -24 16 -297 2 -335 -13 -34 -4 -43
37 -37 l31 5 -5 97 c-5 83 -3 99 10 104 11 4 28 -9 54 -40 74 -89 144 -153
166 -153 33 0 67 11 67 21 0 5 -16 15 -35 24 -46 18 -155 122 -155 147 0 10 8
26 18 37 62 67 69 111 24 154 -34 33 -82 37 -82 7 0 -11 7 -20 15 -20 21 0 36
-43 29 -79 -10 -48 -51 -77 -101 -72 -9 1 -13 23 -13 72 0 57 4 75 18 85 15
12 15 15 2 24 -24 16 -80 12 -87 -6z"/>
</g>
</svg>
