<?xml version="1.0" standalone="no"?>
<!DOCTYPE svg PUBLIC "-//W3C//DTD SVG 20010904//EN"
 "http://www.w3.org/TR/2001/REC-SVG-20010904/DTD/svg10.dtd">
<svg version="1.0" xmlns="http://www.w3.org/2000/svg"
 width="270.000000pt" height="378.000000pt" viewBox="0 0 270.000000 378.000000"
 preserveAspectRatio="xMidYMid meet">
<metadata>
Created by potrace 1.10, written by Peter Selinger 2001-2011
</metadata>
<g transform="translate(0.000000,378.000000) scale(0.100000,-0.100000)"
fill="#000000" stroke="none">
<path d="M2000 3469 c-112 -9 -164 -24 -195 -59 -20 -22 -20 -22 4 -41 21 -17
41 -19 213 -19 227 0 239 -4 259 -95 15 -69 0 -143 -49 -230 -18 -33 -39 -74
-47 -92 -23 -50 -148 -168 -196 -185 -21 -8 -33 -79 -16 -90 14 -10 93 -1 119
13 9 5 23 6 31 3 23 -8 171 177 214 266 54 114 70 173 80 296 4 56 2 65 -31
122 -62 105 -150 130 -386 111z"/>
<path d="M1335 3300 c-11 -5 -32 -9 -46 -9 -64 -2 -191 -53 -239 -97 -14 -12
-43 -32 -66 -43 -81 -42 -124 -112 -124 -200 0 -90 17 -111 87 -111 78 0 186
47 208 91 10 18 25 28 47 32 41 6 48 2 48 -27 0 -16 -17 -35 -60 -66 -61 -44
-61 -44 -58 -90 3 -40 5 -45 26 -43 18 2 24 -3 28 -26 4 -17 12 -32 19 -35 7
-2 22 -25 34 -49 15 -30 39 -57 74 -81 47 -32 59 -36 118 -36 51 0 77 6 113
25 80 42 124 84 142 134 10 25 23 53 29 61 7 8 15 23 18 33 4 10 17 17 31 17
28 0 38 20 36 77 -2 38 16 99 36 124 19 25 53 153 51 196 -3 59 -43 93 -145
119 -45 12 -65 13 -102 3 -34 -9 -59 -9 -98 0 -61 13 -178 14 -207 1z"/>
<path d="M1861 2575 c-34 -10 -104 -86 -121 -131 -10 -25 -145 -97 -201 -108
-20 -3 -76 -26 -125 -51 -49 -24 -95 -45 -102 -45 -8 0 -26 -6 -40 -13 -15 -8
-43 -21 -62 -29 -39 -16 -108 -51 -280 -138 -181 -91 -224 -108 -300 -116 -30
-3 -61 -1 -68 4 -18 12 -6 37 26 51 32 15 17 27 -46 37 -56 8 -108 -7 -149
-45 -18 -16 -40 -28 -50 -27 -29 2 -28 -50 2 -113 15 -31 30 -62 34 -70 4 -7
29 -23 56 -34 42 -17 72 -20 185 -20 130 0 175 7 285 45 17 5 46 14 65 18 33
7 127 49 160 70 8 6 24 14 36 19 11 5 50 27 85 48 63 38 109 61 179 90 19 8
49 22 67 30 42 20 67 11 57 -19 -5 -13 -7 -116 -5 -231 2 -162 -1 -218 -12
-255 -11 -32 -17 -108 -20 -237 -4 -185 -4 -191 19 -240 37 -76 78 -151 94
-170 13 -15 12 -19 -4 -31 -24 -17 -116 -28 -170 -21 -37 5 -47 3 -65 -17 -12
-13 -25 -41 -28 -62 -3 -21 -14 -52 -23 -69 -33 -59 -33 -71 0 -260 5 -33 13
-72 16 -88 6 -26 4 -27 -29 -27 -20 0 -38 -4 -42 -9 -8 -14 50 -51 81 -51 16
0 39 -11 55 -26 l27 -26 43 32 c44 31 44 31 58 11 14 -22 57 -29 63 -9 3 7 12
6 31 -6 30 -20 82 -14 91 10 3 9 20 14 46 14 23 0 51 5 62 11 30 16 129 39
214 49 40 4 81 13 92 19 12 6 47 11 79 11 58 0 156 27 201 56 14 9 22 24 22
42 0 15 9 45 20 67 11 21 17 48 14 60 -3 12 2 39 10 60 22 51 20 103 -4 142
-14 23 -18 42 -13 64 5 28 1 36 -42 76 -41 37 -53 44 -74 37 -28 -7 -80 -8
-236 -3 l-99 4 -43 125 c-23 69 -43 144 -43 167 0 26 -6 45 -14 50 -8 4 -16
23 -18 42 -3 39 -23 52 -31 21 -5 -20 -27 -29 -27 -10 0 6 -7 10 -15 10 -8 0
-15 -4 -15 -10 0 -5 -7 -10 -15 -10 -22 0 -18 22 10 49 19 18 28 21 39 12 21
-17 28 0 9 22 -17 19 -17 20 5 34 14 10 22 25 22 45 0 41 28 80 51 73 17 -6
19 0 21 72 4 144 -2 176 -27 167 -12 -5 -13 -10 -5 -20 6 -7 10 -28 8 -46 -4
-43 -32 -45 -36 -3 -2 17 -8 34 -13 39 -14 15 -11 100 6 122 8 10 15 26 15 35
0 9 26 38 57 65 31 27 80 72 108 99 112 108 153 135 209 135 38 0 55 15 37 33
-14 14 -14 54 -1 62 7 4 4 17 -7 36 -15 25 -16 33 -5 50 12 18 11 24 -9 45
-43 46 -98 65 -169 57 -47 -4 -61 -3 -56 5 4 7 18 12 32 12 21 0 36 19 17 21
-5 0 -51 3 -103 5 -52 3 -101 9 -110 13 -8 4 -30 2 -49 -4z m9 -500 c0 -39 -7
-42 -36 -20 -19 14 -18 15 6 35 14 11 26 20 28 20 1 0 2 -16 2 -35z m-1396
-234 c7 -11 -14 -20 -31 -13 -7 2 -13 8 -13 13 0 12 37 12 44 0z m1772 -1066
c4 -8 -1 -37 -10 -65 -11 -33 -13 -56 -7 -72 31 -83 33 -99 14 -113 -10 -8
-22 -15 -28 -15 -5 0 -55 -7 -110 -16 -55 -9 -147 -21 -205 -28 -58 -6 -110
-15 -116 -18 -6 -4 -21 2 -33 13 -20 19 -21 23 -7 38 14 15 13 21 -5 59 -12
23 -30 49 -41 56 -11 8 -18 22 -16 33 4 22 82 62 124 62 33 1 190 32 245 49
108 34 186 40 195 17z"/>
</g>
</svg>
