<?xml version="1.0" standalone="no"?>
<!DOCTYPE svg PUBLIC "-//W3C//DTD SVG 20010904//EN"
 "http://www.w3.org/TR/2001/REC-SVG-20010904/DTD/svg10.dtd">
<svg version="1.0" xmlns="http://www.w3.org/2000/svg"
 width="174.000000pt" height="900.000000pt" viewBox="0 0 174.000000 900.000000"
 preserveAspectRatio="xMidYMid meet">
<metadata>
Created by potrace 1.10, written by Peter Selinger 2001-2011
</metadata>
<g transform="translate(0.000000,900.000000) scale(0.100000,-0.100000)"
fill="#ffffff" stroke="none">
<path d="M820 8578 c0 -27 -8 -38 -39 -60 -22 -16 -45 -28 -53 -28 -8 0 -23
-6 -34 -14 -18 -14 -18 -16 -3 -31 15 -15 21 -15 55 -4 22 7 59 26 84 42 39
26 48 28 72 18 16 -6 43 -16 61 -22 17 -7 42 -16 54 -22 29 -13 53 -3 53 22 0
24 -17 34 -89 52 -41 10 -55 19 -63 38 -12 32 -25 41 -65 41 -30 0 -33 -3 -33
-32z"/>
<path d="M1012 8404 c-12 -8 -27 -12 -32 -9 -6 4 -86 8 -179 9 -161 3 -168 2
-163 -16 8 -32 36 -40 110 -30 81 11 92 8 92 -28 0 -31 14 -40 52 -33 20 4 26
0 31 -18 4 -13 3 -27 -2 -32 -18 -18 -141 -6 -141 14 0 5 5 9 10 9 6 0 10 7
10 15 0 18 -36 38 -58 32 -14 -4 -13 -6 6 -12 26 -9 28 -23 5 -40 -15 -11 -16
-17 -3 -56 18 -58 27 -69 59 -69 41 0 55 13 42 38 -15 28 8 41 65 34 23 -2 55
-1 69 2 22 6 25 9 15 21 -9 11 -9 22 -1 47 13 38 4 48 -46 48 -36 0 -44 19
-18 40 12 10 21 10 41 1 30 -14 150 -15 159 -1 3 5 1 19 -5 30 -13 25 -84 28
-118 4z"/>
<path d="M975 8181 c-46 -10 -38 -34 15 -43 48 -8 64 -1 58 28 -4 21 -27 26
-73 15z"/>
<path d="M845 8080 c-4 -6 -23 -19 -44 -29 -48 -25 -68 -62 -53 -96 28 -61
134 -85 199 -45 60 36 57 109 -5 138 -20 9 -41 23 -45 30 -10 15 -43 16 -52 2z
m49 -63 c12 -9 17 -23 14 -42 -2 -24 -8 -31 -31 -33 -51 -6 -74 33 -40 70 19
21 33 23 57 5z"/>
<path d="M634 7848 c-19 -30 71 -73 101 -48 12 10 57 13 183 11 92 -1 177 -5
188 -7 24 -6 41 23 24 40 -12 12 -489 16 -496 4z"/>
<path d="M724 7759 c-3 -6 -1 -16 5 -22 6 -6 11 -23 11 -37 0 -47 24 -57 151
-65 126 -8 159 -3 159 24 0 42 -60 55 -118 25 -18 -8 -46 -14 -64 -12 -30 3
-33 7 -36 38 -2 19 -10 41 -19 48 -21 15 -79 16 -89 1z"/>
<path d="M703 7003 c-3 -7 4 -21 16 -31 17 -14 21 -30 23 -92 3 -71 4 -75 27
-78 15 -2 28 3 33 12 7 13 28 16 108 16 54 0 101 4 105 10 3 5 0 18 -7 29 -9
15 -9 28 0 59 17 56 15 82 -5 82 -10 0 -80 1 -156 3 -110 3 -140 1 -144 -10z
m232 -83 l0 -55 -62 -3 -63 -3 0 54 c0 29 3 57 7 61 4 4 32 6 63 4 l55 -3 0
-55z"/>
<path d="M818 6794 c-4 -3 1 -18 9 -32 11 -21 12 -33 5 -53 -10 -25 -14 -26
-59 -22 -26 3 -61 12 -77 20 -32 17 -76 10 -76 -12 0 -9 15 -25 33 -36 27 -17
42 -19 101 -14 38 3 74 10 80 14 6 5 29 11 51 13 l40 3 -4 55 c-2 30 -5 58 -8
63 -5 8 -87 10 -95 1z"/>
<path d="M991 6711 c-14 -4 -26 -11 -28 -17 -7 -21 23 -33 86 -36 50 -2 66 0
74 13 21 32 2 49 -55 48 -29 -1 -64 -4 -77 -8z"/>
<path d="M923 6534 c-7 -3 -13 -12 -13 -20 0 -19 -76 -18 -110 1 -14 8 -42 14
-62 15 -44 0 -50 -18 -18 -50 12 -12 20 -33 20 -55 0 -23 6 -37 18 -42 9 -5
76 -8 147 -8 123 0 130 1 130 20 0 19 -7 20 -110 20 -105 0 -110 1 -113 22 -5
34 28 44 131 42 l92 -2 0 29 c0 28 -2 29 -50 31 -27 1 -56 0 -62 -3z"/>
<path d="M639 6316 c-7 -8 1 -56 10 -57 3 0 111 -1 239 -3 243 -2 256 0 246
40 -5 19 -11 20 -117 15 -155 -8 -274 -7 -327 3 -25 4 -48 5 -51 2z"/>
<path d="M718 6225 c-3 -4 0 -19 8 -33 7 -15 16 -39 19 -54 8 -42 38 -52 165
-54 118 -2 140 4 140 37 0 27 -42 34 -120 19 -82 -15 -100 -10 -100 28 0 16
-7 35 -15 42 -17 14 -87 25 -97 15z"/>
<path d="M917 5533 c-14 -13 -6 -42 16 -58 20 -14 22 -26 27 -123 4 -92 7
-107 23 -110 10 -2 28 7 42 20 17 16 36 23 62 23 31 0 38 4 38 20 0 17 -8 20
-47 23 -43 3 -48 5 -48 28 0 26 5 28 63 25 32 -2 37 0 37 18 0 21 -4 22 -65
25 -26 1 -30 5 -31 31 -1 17 -2 36 -3 42 0 7 -19 16 -41 19 -22 4 -43 11 -46
15 -6 11 -18 12 -27 2z"/>
<path d="M755 5470 c-4 -6 -24 -22 -45 -35 -31 -20 -39 -32 -45 -67 -7 -40 -5
-44 26 -70 27 -23 43 -28 84 -28 42 0 56 5 83 29 40 37 43 81 8 114 -71 66
-97 79 -111 57z m47 -77 c21 -19 23 -41 4 -65 -16 -22 -52 -23 -60 -2 -11 29
-6 63 12 73 23 14 23 14 44 -6z"/>
<path d="M736 5212 c-28 -28 46 -62 93 -42 15 6 50 10 77 8 l49 -3 0 -75 c0
-70 2 -75 22 -78 35 -5 63 49 62 121 -1 34 -6 60 -13 62 -21 6 -284 13 -290 7z"/>
<path d="M926 4475 c-16 -12 -39 -14 -113 -9 -82 6 -93 5 -99 -11 -11 -28 16
-36 94 -30 39 3 72 2 72 -3 0 -18 -65 -56 -154 -91 -23 -9 -27 -16 -23 -36 4
-23 1 -25 -29 -25 -30 0 -34 -3 -34 -25 0 -34 33 -41 122 -26 53 9 74 9 84 0
23 -19 16 -38 -23 -56 -44 -21 -69 -60 -60 -94 9 -33 65 -69 108 -69 45 0 101
30 117 64 17 34 -1 75 -42 94 -26 13 -28 17 -21 58 l6 43 -96 0 c-53 -1 -99 2
-103 6 -8 8 35 45 53 45 7 0 36 12 63 26 48 25 52 25 74 10 12 -9 34 -16 48
-16 14 0 31 -5 37 -11 6 -6 23 -9 39 -7 23 2 29 8 29 28 0 24 -3 25 -72 28
-88 3 -94 17 -23 50 55 25 55 25 40 53 -13 23 -66 25 -94 4z m-25 -345 c23
-13 26 -58 4 -66 -8 -4 -26 -3 -40 0 -30 8 -35 49 -7 65 21 13 20 13 43 1z"/>
<path d="M1000 4260 c-29 -25 -22 -32 38 -39 75 -10 94 -4 90 27 -3 25 -7 27
-53 30 -40 2 -56 -2 -75 -18z"/>
<path d="M944 3969 c-3 -6 3 -20 15 -33 19 -21 21 -35 23 -236 3 -200 4 -215
22 -218 10 -2 23 1 28 6 14 14 17 473 3 477 -35 10 -86 12 -91 4z"/>
<path d="M867 3914 c-3 -4 2 -18 11 -32 14 -21 16 -51 15 -189 l-2 -163 23 0
c13 0 27 7 30 16 3 9 6 89 6 179 0 158 -1 164 -22 179 -23 16 -50 21 -61 10z"/>
<path d="M730 3852 c0 -4 -18 -18 -40 -32 -64 -39 -69 -90 -17 -147 16 -18 31
-23 69 -23 44 0 53 4 84 38 29 30 34 42 29 67 -3 17 -17 39 -32 50 -15 11 -34
28 -42 37 -15 18 -51 25 -51 10z m52 -75 c21 -31 7 -67 -26 -67 -23 0 -46 24
-46 49 0 14 29 41 45 41 7 0 19 -10 27 -23z"/>
<path d="M835 2890 c-10 -11 -23 -20 -30 -20 -6 0 -24 -13 -40 -30 -21 -22
-28 -38 -27 -66 2 -44 20 -67 78 -95 38 -18 48 -19 81 -9 57 18 80 36 99 75
23 49 7 83 -60 129 -60 41 -76 44 -101 16z m63 -66 c25 -17 31 -71 10 -92 -21
-21 -64 -14 -82 13 -15 23 -15 28 -1 54 13 26 26 37 45 40 3 1 16 -6 28 -15z"/>
<path d="M620 2575 c0 -43 26 -47 264 -47 122 0 226 1 232 1 23 2 23 31 1 52
-24 22 -55 22 -167 0 -60 -13 -267 -4 -276 10 -3 5 -16 9 -30 9 -19 0 -24 -5
-24 -25z"/>
<path d="M986 2413 c-7 -7 -48 -9 -258 -12 -53 -1 -67 -14 -44 -40 9 -10 16
-31 16 -47 0 -49 25 -74 74 -74 27 0 48 6 56 15 14 17 51 20 65 6 6 -5 46 -11
90 -13 l80 -3 3 29 4 29 -61 -7 c-58 -7 -61 -6 -67 18 -9 36 2 46 50 46 45 0
66 13 66 42 0 14 -8 18 -33 18 -19 0 -37 -3 -41 -7z m-117 -67 c6 -7 9 -20 6
-28 -5 -13 -58 -38 -82 -38 -14 0 -25 43 -17 64 8 20 77 22 93 2z"/>
<path d="M633 2214 c-21 -9 -15 -23 20 -44 38 -24 77 -25 116 -6 42 22 206 23
258 2 59 -25 97 -19 101 16 3 22 -2 29 -23 34 -14 4 -45 3 -68 -1 -42 -7 -335
-7 -372 0 -11 2 -26 1 -32 -1z"/>
<path d="M793 2122 c-46 -2 -63 -7 -63 -17 0 -7 8 -15 18 -17 14 -3 17 -15 17
-73 0 -68 1 -70 26 -73 14 -2 31 4 39 12 9 12 32 16 84 16 90 0 100 6 85 50
-9 25 -9 37 0 51 15 25 14 49 -1 51 -24 3 -143 3 -205 0z m132 -77 l0 -40 -45
0 c-42 0 -45 2 -48 28 -6 49 3 58 50 55 43 -3 43 -3 43 -43z"/>
<path d="M925 1909 c-5 -7 0 -19 14 -30 22 -18 23 -24 24 -231 l2 -213 27 -3
c19 -2 30 3 37 17 16 29 22 438 7 450 -20 17 -103 24 -111 10z"/>
<path d="M740 1801 c-5 -11 -20 -23 -32 -27 -53 -17 -76 -96 -40 -140 23 -29
74 -54 109 -54 15 1 46 13 68 28 37 26 40 32 43 77 3 58 2 60 -61 103 -55 37
-72 40 -87 13z m67 -63 c29 -28 29 -49 -1 -77 -29 -27 -58 -22 -74 15 -16 33
-15 37 8 62 26 28 38 28 67 0z"/>
<path d="M895 1399 c-5 -7 -1 -17 11 -25 43 -30 44 -33 44 -142 0 -113 -6
-137 -30 -122 -8 5 -21 5 -29 1 -29 -15 -118 -20 -130 -8 -6 6 -11 33 -11 59
0 44 2 48 28 54 15 3 38 10 52 14 14 5 36 10 50 12 14 2 26 10 28 20 5 26 -46
31 -121 12 -53 -13 -73 -14 -99 -5 -25 9 -35 8 -46 -2 -11 -12 -9 -17 12 -31
24 -15 26 -22 26 -96 0 -103 10 -115 93 -107 33 3 64 10 70 16 6 6 18 11 26
11 9 0 28 7 43 14 17 9 30 11 34 5 3 -5 3 -42 -1 -82 -8 -80 2 -101 43 -90 37
9 52 54 43 134 -8 81 0 95 51 85 41 -7 62 5 54 32 -8 23 -45 36 -63 20 -7 -5
-20 -7 -29 -4 -14 5 -16 20 -12 96 5 98 -5 120 -55 126 -12 1 -34 6 -48 9 -17
4 -29 2 -34 -6z"/>
<path d="M675 507 c-33 -50 19 -100 80 -77 23 9 26 14 23 52 -3 43 -3 43 -45
46 -35 3 -44 -1 -58 -21z"/>
</g>
</svg>
